<?xml version="1.0" encoding="utf-8"?>
<!-- Generator: Adobe Illustrator 26.4.0, SVG Export Plug-In . SVG Version: 6.00 Build 0)  -->
<svg version="1.1" id="Layer_1" xmlns="http://www.w3.org/2000/svg" xmlns:xlink="http://www.w3.org/1999/xlink" x="0px" y="0px"
	 viewBox="0 0 1083.5 841.9" style="enable-background:new 0 0 1083.5 841.9;" xml:space="preserve">
<style type="text/css">
	.st0{fill:#1A92C1;}
	.st1{fill:#107999;}
	.st2{fill:#46A6D1;}
	.st3{fill:#EBF8FF;}
	.st4{opacity:0.7;}
	.st5{opacity:0.5;clip-path:url(#SVGID_00000000920564262133634370000010956068465780484029_);}
	.st6{opacity:0.3;}
	.st7{fill:#56A4FE;}
	.st8{fill:#AEF4FF;}
	.st9{opacity:0.3;fill:none;stroke:#56A4FE;stroke-width:1.0997;stroke-miterlimit:10;}
	.st10{opacity:0.24;fill:#E8505C;}
	.st11{fill:#E8505C;}
	.st12{fill:none;stroke:#FFFFFF;stroke-width:1.531;stroke-miterlimit:10;}
	.st13{fill:none;stroke:#FFFFFF;stroke-width:1.531;stroke-linecap:round;stroke-miterlimit:10;}
	.st14{opacity:0.8;fill:#5FB0E7;}
	.st15{fill:#222B70;}
	.st16{fill:#023D5F;}
	.st17{fill:#2DC1BD;}
	.st18{fill:#F2A181;}
	.st19{fill:#2C1E56;}
	.st20{fill:#FFCCB0;}
	.st21{fill:#17A59E;}
	.st22{fill:#FFFFFF;}
	.st23{fill:#C6324B;}
	.st24{opacity:0.2;fill:#FFFFFF;}
	.st25{opacity:8.000000e-02;fill:#FFFFFF;}
	.st26{opacity:0.8;}
	.st27{fill:#5FB0E7;}
	.st28{fill:#F4A07A;}
	.st29{fill:#F4B798;}
	.st30{fill:#32CCC4;}
	.st31{fill:#0D2D47;}
	.st32{fill:#FF8594;}
	.st33{opacity:0.47;fill:url(#SVGID_00000173158384797335007720000011894326278033002390_);}
	.st34{opacity:0.83;}
	.st35{fill:#231F20;}
</style>
<g>
	<g>
		<polygon class="st0" points="624.8,752.7 450.2,752.7 469.1,678.1 473.4,661.2 481.8,628.4 593.2,628.4 601.6,661.2 605.9,678.1 
					"/>
		<path class="st0" d="M948.4,145.7v494.5c0,10.1-6.6,18.5-15.6,20.7c-1.5,0.4-3.1,0.6-4.7,0.6H149.4c-4,0-7.8-1.2-10.9-3.3
			c-1.2-0.8-2.2-1.7-3.2-2.7c-3.8-3.9-6.2-9.3-6.2-15.3V145.7c0-11.7,9.1-21.3,20.3-21.3h778.7C939.3,124.4,948.4,134,948.4,145.7z"
			/>
		<polygon class="st1" points="605.9,678.1 469.1,678.1 473.4,661.2 601.6,661.2 		"/>
		<path class="st1" d="M691.9,773.3H383.1c-7.4,0-13.4-6-13.4-13.4l0,0c0-7.4,6-13.4,13.4-13.4h308.7c7.4,0,13.4,6,13.4,13.4l0,0
			C705.3,767.3,699.3,773.3,691.9,773.3z"/>
		<path class="st2" d="M948.4,145.7v426.4H129V145.7c0-11.8,9.1-21.3,20.4-21.3h778.7C939.3,124.4,948.4,134,948.4,145.7z"/>
		<rect x="152.8" y="149.6" class="st3" width="771.8" height="400.4"/>
		<g class="st4">
			<defs>
				<rect id="SVGID_1_" x="152.8" y="149.6" class="st4" width="771.8" height="400.4"/>
			</defs>
			<clipPath id="SVGID_00000052823315379580391910000010996989236510565049_">
				<use xlink:href="#SVGID_1_"  style="overflow:visible;"/>
			</clipPath>
			<g style="opacity:0.5;clip-path:url(#SVGID_00000052823315379580391910000010996989236510565049_);">
				<g class="st6">
					<g>
						<g>
							<g>
								<path class="st7" d="M83.6,156.4H81c-1.4,0.8-3.1,1.5-5.5,1.9v2.1h4.7v18.9h-5.9v2.7h14.6v-2.7h-5.4V156.4z"/>
							</g>
							<g>
								<path class="st7" d="M167.4,156.4h-2.6c-1.4,0.8-3.1,1.5-5.5,1.9v2.1h4.7v18.9h-5.9v2.7h14.6v-2.7h-5.4V156.4z"/>
							</g>
							<g>
								<path class="st7" d="M123.6,155.9c-5.2,0-8.3,4.6-8.3,13.2c0,8.6,3.1,13.4,8.3,13.4c5.2,0,8.3-4.8,8.3-13.4
									C131.9,160.5,128.7,155.9,123.6,155.9z M123.6,179.8c-3.1,0-5.1-3.2-5.1-10.7c0-7.5,2-10.6,5.1-10.6c3,0,5,3,5,10.6
									C128.6,176.6,126.6,179.8,123.6,179.8z"/>
							</g>
							<g>
								<path class="st7" d="M253.6,155.9c-5.2,0-8.3,4.6-8.3,13.2c0,8.6,3.1,13.4,8.3,13.4c5.2,0,8.3-4.8,8.3-13.4
									C261.9,160.5,258.7,155.9,253.6,155.9z M253.6,179.8c-3.1,0-5.1-3.2-5.1-10.7c0-7.5,2-10.6,5.1-10.6c3,0,5,3,5,10.6
									C258.6,176.6,256.6,179.8,253.6,179.8z"/>
							</g>
							<g>
								<path class="st7" d="M300.4,156.4h-2.6c-1.4,0.8-3.1,1.5-5.5,1.9v2.1h4.7v18.9h-5.9v2.7h14.6v-2.7h-5.4V156.4z"/>
							</g>
							<g>
								<path class="st7" d="M81.2,201c-5.2,0-8.3,4.6-8.3,13.2c0,8.6,3.1,13.4,8.3,13.4c5.2,0,8.3-4.8,8.3-13.4
									C89.5,205.7,86.4,201,81.2,201z M81.2,225c-3.1,0-5.1-3.2-5.1-10.7c0-7.5,2-10.6,5.1-10.6c3,0,5,3,5,10.6
									C86.3,221.8,84.2,225,81.2,225z"/>
							</g>
							<g>
								<path class="st7" d="M167.4,201.5h-2.6c-1.4,0.8-3.1,1.5-5.5,1.9v2.1h4.7v18.9h-5.9v2.7h14.6v-2.7h-5.4V201.5z"/>
							</g>
							<g>
								<path class="st7" d="M210,201c-5.2,0-8.3,4.6-8.3,13.2c0,8.6,3.1,13.4,8.3,13.4c5.2,0,8.3-4.8,8.3-13.4
									C218.3,205.7,215.1,201,210,201z M210,225c-3.1,0-5.1-3.2-5.1-10.7c0-7.5,2-10.6,5.1-10.6c3,0,5,3,5,10.6
									C215,221.8,213,225,210,225z"/>
							</g>
							<g>
								<path class="st7" d="M123.6,201c-5.2,0-8.3,4.6-8.3,13.2c0,8.6,3.1,13.4,8.3,13.4c5.2,0,8.3-4.8,8.3-13.4
									C131.9,205.7,128.7,201,123.6,201z M123.6,225c-3.1,0-5.1-3.2-5.1-10.7c0-7.5,2-10.6,5.1-10.6c3,0,5,3,5,10.6
									C128.6,221.8,126.6,225,123.6,225z"/>
							</g>
							<g>
								<path class="st7" d="M83.6,246.7H81c-1.4,0.8-3.1,1.5-5.5,1.9v2.1h4.7v18.9h-5.9v2.7h14.6v-2.7h-5.4V246.7z"/>
							</g>
							<g>
								<path class="st7" d="M212.3,246.7h-2.6c-1.4,0.8-3.1,1.5-5.5,1.9v2.1h4.7v18.9H203v2.7h14.6v-2.7h-5.4V246.7z"/>
							</g>
							<g>
								<path class="st7" d="M123.6,246.2c-5.2,0-8.3,4.6-8.3,13.2c0,8.6,3.1,13.4,8.3,13.4c5.2,0,8.3-4.8,8.3-13.4
									C131.9,250.8,128.7,246.2,123.6,246.2z M123.6,270.1c-3.1,0-5.1-3.2-5.1-10.7c0-7.5,2-10.6,5.1-10.6c3,0,5,3,5,10.6
									C128.6,266.9,126.6,270.1,123.6,270.1z"/>
							</g>
							<g>
								<path class="st7" d="M81.2,291.4c-5.2,0-8.3,4.6-8.3,13.2s3.1,13.4,8.3,13.4c5.2,0,8.3-4.8,8.3-13.4S86.4,291.4,81.2,291.4z
									 M81.2,315.3c-3.1,0-5.1-3.2-5.1-10.7c0-7.5,2-10.6,5.1-10.6c3,0,5,3,5,10.6C86.3,312.1,84.2,315.3,81.2,315.3z"/>
							</g>
							<g>
								<path class="st7" d="M167.4,291.9h-2.6c-1.4,0.8-3.1,1.5-5.5,1.9v2.1h4.7v18.9h-5.9v2.7h14.6v-2.7h-5.4V291.9z"/>
							</g>
							<g>
								<path class="st7" d="M212.3,291.9h-2.6c-1.4,0.8-3.1,1.5-5.5,1.9v2.1h4.7v18.9H203v2.7h14.6v-2.7h-5.4V291.9z"/>
							</g>
							<g>
								<g>
									<path class="st7" d="M123.6,291.4c-5.2,0-8.3,4.6-8.3,13.2s3.1,13.4,8.3,13.4c5.2,0,8.3-4.8,8.3-13.4
										S128.7,291.4,123.6,291.4z M123.6,315.3c-3.1,0-5.1-3.2-5.1-10.7c0-7.5,2-10.6,5.1-10.6c3,0,5,3,5,10.6
										C128.6,312.1,126.6,315.3,123.6,315.3z"/>
								</g>
							</g>
							<g>
								<path class="st7" d="M253.6,291.4c-5.2,0-8.3,4.6-8.3,13.2s3.1,13.4,8.3,13.4c5.2,0,8.3-4.8,8.3-13.4
									S258.7,291.4,253.6,291.4z M253.6,315.3c-3.1,0-5.1-3.2-5.1-10.7c0-7.5,2-10.6,5.1-10.6c3,0,5,3,5,10.6
									C258.6,312.1,256.6,315.3,253.6,315.3z"/>
							</g>
							<g>
								<path class="st7" d="M298.1,291.4c-5.2,0-8.3,4.6-8.3,13.2s3.1,13.4,8.3,13.4c5.2,0,8.3-4.8,8.3-13.4
									S303.2,291.4,298.1,291.4z M298.1,315.3c-3.1,0-5.1-3.2-5.1-10.7c0-7.5,2-10.6,5.1-10.6c3,0,5,3,5,10.6
									C303.1,312.1,301.1,315.3,298.1,315.3z"/>
							</g>
							<g>
								<g>
									<path class="st7" d="M83.6,337H81c-1.4,0.8-3.1,1.5-5.5,1.9v2.1h4.7v18.9h-5.9v2.7h14.6v-2.7h-5.4V337z"/>
								</g>
							</g>
							<g>
								<path class="st7" d="M210,336.5c-5.2,0-8.3,4.6-8.3,13.2c0,8.6,3.1,13.4,8.3,13.4c5.2,0,8.3-4.8,8.3-13.4
									C218.3,341.1,215.1,336.5,210,336.5z M210,360.4c-3.1,0-5.1-3.2-5.1-10.7c0-7.5,2-10.6,5.1-10.6c3,0,5,3,5,10.6
									C215,357.2,213,360.4,210,360.4z"/>
							</g>
							<g>
								<path class="st7" d="M123.6,336.5c-5.2,0-8.3,4.6-8.3,13.2c0,8.6,3.1,13.4,8.3,13.4c5.2,0,8.3-4.8,8.3-13.4
									C131.9,341.1,128.7,336.5,123.6,336.5z M123.6,360.4c-3.1,0-5.1-3.2-5.1-10.7c0-7.5,2-10.6,5.1-10.6c3,0,5,3,5,10.6
									C128.6,357.2,126.6,360.4,123.6,360.4z"/>
							</g>
							<g>
								<path class="st7" d="M253.6,336.5c-5.2,0-8.3,4.6-8.3,13.2c0,8.6,3.1,13.4,8.3,13.4c5.2,0,8.3-4.8,8.3-13.4
									C261.9,341.1,258.7,336.5,253.6,336.5z M253.6,360.4c-3.1,0-5.1-3.2-5.1-10.7c0-7.5,2-10.6,5.1-10.6c3,0,5,3,5,10.6
									C258.6,357.2,256.6,360.4,253.6,360.4z"/>
							</g>
						</g>
						<g>
							<g>
								<path class="st7" d="M83.6,380.4H81c-1.4,0.8-3.1,1.5-5.5,1.9v2.1h4.7v18.9h-5.9v2.7h14.6v-2.7h-5.4V380.4z"/>
							</g>
							<g>
								<path class="st7" d="M167.4,380.4h-2.6c-1.4,0.8-3.1,1.5-5.5,1.9v2.1h4.7v18.9h-5.9v2.7h14.6v-2.7h-5.4V380.4z"/>
							</g>
							<g>
								<path class="st7" d="M212.3,380.4h-2.6c-1.4,0.8-3.1,1.5-5.5,1.9v2.1h4.7v18.9H203v2.7h14.6v-2.7h-5.4V380.4z"/>
							</g>
							<g>
								<path class="st7" d="M123.6,379.9c-5.2,0-8.3,4.6-8.3,13.2c0,8.6,3.1,13.4,8.3,13.4c5.2,0,8.3-4.8,8.3-13.4
									C131.9,384.5,128.7,379.9,123.6,379.9z M123.6,403.9c-3.1,0-5.1-3.2-5.1-10.7c0-7.5,2-10.6,5.1-10.6c3,0,5,3,5,10.6
									C128.6,400.6,126.6,403.9,123.6,403.9z"/>
							</g>
							<g>
								<path class="st7" d="M253.6,379.9c-5.2,0-8.3,4.6-8.3,13.2c0,8.6,3.1,13.4,8.3,13.4c5.2,0,8.3-4.8,8.3-13.4
									C261.9,384.5,258.7,379.9,253.6,379.9z M253.6,403.9c-3.1,0-5.1-3.2-5.1-10.7c0-7.5,2-10.6,5.1-10.6c3,0,5,3,5,10.6
									C258.6,400.6,256.6,403.9,253.6,403.9z"/>
							</g>
							<g>
								<path class="st7" d="M300.4,380.4h-2.6c-1.4,0.8-3.1,1.5-5.5,1.9v2.1h4.7v18.9h-5.9v2.7h14.6v-2.7h-5.4V380.4z"/>
							</g>
							<g>
								<g>
									<path class="st7" d="M81.2,425.1c-5.2,0-8.3,4.6-8.3,13.2c0,8.6,3.1,13.4,8.3,13.4c5.2,0,8.3-4.8,8.3-13.4
										C89.5,429.7,86.4,425.1,81.2,425.1z M81.2,449c-3.1,0-5.1-3.2-5.1-10.7c0-7.5,2-10.6,5.1-10.6c3,0,5,3,5,10.6
										C86.3,445.8,84.2,449,81.2,449z"/>
								</g>
							</g>
							<g>
								<path class="st7" d="M167.4,425.6h-2.6c-1.4,0.8-3.1,1.5-5.5,1.9v2.1h4.7v18.9h-5.9v2.7h14.6v-2.7h-5.4V425.6z"/>
							</g>
							<g>
								<g>
									<path class="st7" d="M210,425.1c-5.2,0-8.3,4.6-8.3,13.2c0,8.6,3.1,13.4,8.3,13.4c5.2,0,8.3-4.8,8.3-13.4
										C218.3,429.7,215.1,425.1,210,425.1z M210,449c-3.1,0-5.1-3.2-5.1-10.7c0-7.5,2-10.6,5.1-10.6c3,0,5,3,5,10.6
										C215,445.8,213,449,210,449z"/>
								</g>
							</g>
							<g>
								<path class="st7" d="M123.6,425.1c-5.2,0-8.3,4.6-8.3,13.2c0,8.6,3.1,13.4,8.3,13.4c5.2,0,8.3-4.8,8.3-13.4
									C131.9,429.7,128.7,425.1,123.6,425.1z M123.6,449c-3.1,0-5.1-3.2-5.1-10.7c0-7.5,2-10.6,5.1-10.6c3,0,5,3,5,10.6
									C128.6,445.8,126.6,449,123.6,449z"/>
							</g>
							<g>
								<path class="st7" d="M255.9,425.6h-2.6c-1.4,0.8-3.1,1.5-5.5,1.9v2.1h4.7v18.9h-5.9v2.7h14.6v-2.7h-5.4V425.6z"/>
							</g>
							<g>
								<path class="st7" d="M298.1,425.1c-5.2,0-8.3,4.6-8.3,13.2c0,8.6,3.1,13.4,8.3,13.4c5.2,0,8.3-4.8,8.3-13.4
									C306.3,429.7,303.2,425.1,298.1,425.1z M298.1,449c-3.1,0-5.1-3.2-5.1-10.7c0-7.5,2-10.6,5.1-10.6c3,0,5,3,5,10.6
									C303.1,445.8,301.1,449,298.1,449z"/>
							</g>
							<g>
								<path class="st7" d="M83.6,470.7H81c-1.4,0.8-3.1,1.5-5.5,1.9v2.1h4.7v18.9h-5.9v2.7h14.6v-2.7h-5.4V470.7z"/>
							</g>
							<g>
								<g>
									<path class="st7" d="M165.1,470.2c-5.2,0-8.3,4.6-8.3,13.2c0,8.6,3.1,13.4,8.3,13.4c5.2,0,8.3-4.8,8.3-13.4
										C173.4,474.9,170.2,470.2,165.1,470.2z M165.1,494.2c-3.1,0-5.1-3.2-5.1-10.7c0-7.5,2-10.6,5.1-10.6c3,0,5,3.1,5,10.6
										C170.1,491,168.1,494.2,165.1,494.2z"/>
								</g>
							</g>
							<g>
								<path class="st7" d="M212.3,470.7h-2.6c-1.4,0.8-3.1,1.5-5.5,1.9v2.1h4.7v18.9H203v2.7h14.6v-2.7h-5.4V470.7z"/>
							</g>
							<g>
								<path class="st7" d="M123.6,470.2c-5.2,0-8.3,4.6-8.3,13.2c0,8.6,3.1,13.4,8.3,13.4c5.2,0,8.3-4.8,8.3-13.4
									C131.9,474.9,128.7,470.2,123.6,470.2z M123.6,494.2c-3.1,0-5.1-3.2-5.1-10.7c0-7.5,2-10.6,5.1-10.6c3,0,5,3.1,5,10.6
									C128.6,491,126.6,494.2,123.6,494.2z"/>
							</g>
							<g>
								<path class="st7" d="M253.6,470.2c-5.2,0-8.3,4.6-8.3,13.2c0,8.6,3.1,13.4,8.3,13.4c5.2,0,8.3-4.8,8.3-13.4
									C261.9,474.9,258.7,470.2,253.6,470.2z M253.6,494.2c-3.1,0-5.1-3.2-5.1-10.7c0-7.5,2-10.6,5.1-10.6c3,0,5,3.1,5,10.6
									C258.6,491,256.6,494.2,253.6,494.2z"/>
							</g>
							<g>
								<path class="st7" d="M300.4,470.7h-2.6c-1.4,0.8-3.1,1.5-5.5,1.9v2.1h4.7v18.9h-5.9v2.7h14.6v-2.7h-5.4V470.7z"/>
							</g>
							<g>
								<path class="st7" d="M81.2,515.4c-5.2,0-8.3,4.6-8.3,13.2c0,8.6,3.1,13.4,8.3,13.4c5.2,0,8.3-4.8,8.3-13.4
									C89.5,520,86.4,515.4,81.2,515.4z M81.2,539.3c-3.1,0-5.1-3.2-5.1-10.7c0-7.5,2-10.6,5.1-10.6c3,0,5,3.1,5,10.6
									C86.3,536.1,84.2,539.3,81.2,539.3z"/>
							</g>
							<g>
								<path class="st7" d="M167.4,515.9h-2.6c-1.4,0.8-3.1,1.5-5.5,1.9v2.1h4.7v18.9h-5.9v2.7h14.6v-2.7h-5.4V515.9z"/>
							</g>
							<g>
								<path class="st7" d="M123.6,515.4c-5.2,0-8.3,4.6-8.3,13.2c0,8.6,3.1,13.4,8.3,13.4c5.2,0,8.3-4.8,8.3-13.4
									C131.9,520,128.7,515.4,123.6,515.4z M123.6,539.3c-3.1,0-5.1-3.2-5.1-10.7c0-7.5,2-10.6,5.1-10.6c3,0,5,3.1,5,10.6
									C128.6,536.1,126.6,539.3,123.6,539.3z"/>
							</g>
							<g>
								<path class="st7" d="M253.6,515.4c-5.2,0-8.3,4.6-8.3,13.2c0,8.6,3.1,13.4,8.3,13.4c5.2,0,8.3-4.8,8.3-13.4
									C261.9,520,258.7,515.4,253.6,515.4z M253.6,539.3c-3.1,0-5.1-3.2-5.1-10.7c0-7.5,2-10.6,5.1-10.6c3,0,5,3.1,5,10.6
									C258.6,536.1,256.6,539.3,253.6,539.3z"/>
							</g>
							<g>
								<path class="st7" d="M298.1,515.4c-5.2,0-8.3,4.6-8.3,13.2c0,8.6,3.1,13.4,8.3,13.4c5.2,0,8.3-4.8,8.3-13.4
									C306.3,520,303.2,515.4,298.1,515.4z M298.1,539.3c-3.1,0-5.1-3.2-5.1-10.7c0-7.5,2-10.6,5.1-10.6c3,0,5,3.1,5,10.6
									C303.1,536.1,301.1,539.3,298.1,539.3z"/>
							</g>
						</g>
					</g>
					<g>
						<g>
							<g>
								<path class="st7" d="M345.3,156.4h-2.6c-1.4,0.8-3.1,1.5-5.5,1.9v2.1h4.7v18.9H336v2.7h14.6v-2.7h-5.4V156.4z"/>
							</g>
							<g>
								<path class="st7" d="M429.2,156.4h-2.6c-1.4,0.8-3.1,1.5-5.5,1.9v2.1h4.7v18.9h-5.9v2.7h14.6v-2.7h-5.4V156.4z"/>
							</g>
							<g>
								<g>
									<path class="st7" d="M474.1,156.4h-2.6c-1.4,0.8-3.1,1.5-5.5,1.9v2.1h4.7v18.9h-5.9v2.7h14.6v-2.7h-5.4V156.4z"/>
								</g>
							</g>
							<g>
								<path class="st7" d="M385.3,155.9c-5.2,0-8.3,4.6-8.3,13.2c0,8.6,3.1,13.4,8.3,13.4c5.2,0,8.3-4.8,8.3-13.4
									C393.6,160.5,390.5,155.9,385.3,155.9z M385.3,179.8c-3.1,0-5.1-3.2-5.1-10.7s2-10.6,5.1-10.6c3,0,5,3,5,10.6
									S388.3,179.8,385.3,179.8z"/>
							</g>
							<g>
								<path class="st7" d="M515.3,155.9c-5.2,0-8.3,4.6-8.3,13.2c0,8.6,3.1,13.4,8.3,13.4c5.2,0,8.3-4.8,8.3-13.4
									C523.6,160.5,520.5,155.9,515.3,155.9z M515.3,179.8c-3.1,0-5.1-3.2-5.1-10.7s2-10.6,5.1-10.6c3,0,5,3,5,10.6
									S518.3,179.8,515.3,179.8z"/>
							</g>
							<g>
								<path class="st7" d="M429.2,201.5h-2.6c-1.4,0.8-3.1,1.5-5.5,1.9v2.1h4.7v18.9h-5.9v2.7h14.6v-2.7h-5.4V201.5z"/>
							</g>
							<g>
								<path class="st7" d="M471.7,201c-5.2,0-8.3,4.6-8.3,13.2c0,8.6,3.1,13.4,8.3,13.4c5.2,0,8.3-4.8,8.3-13.4
									C480,205.7,476.9,201,471.7,201z M471.7,225c-3.1,0-5.1-3.2-5.1-10.7c0-7.5,2-10.6,5.1-10.6c3,0,5,3,5,10.6
									C476.7,221.8,474.7,225,471.7,225z"/>
							</g>
							<g>
								<path class="st7" d="M517.7,201.5h-2.6c-1.4,0.8-3.1,1.5-5.5,1.9v2.1h4.7v18.9h-5.9v2.7H523v-2.7h-5.4V201.5z"/>
							</g>
							<g>
								<path class="st7" d="M559.8,201c-5.2,0-8.3,4.6-8.3,13.2c0,8.6,3.1,13.4,8.3,13.4c5.2,0,8.3-4.8,8.3-13.4
									C568.1,205.7,565,201,559.8,201z M559.8,225c-3.1,0-5.1-3.2-5.1-10.7c0-7.5,2-10.6,5.1-10.6c3,0,5,3,5,10.6
									C564.8,221.8,562.8,225,559.8,225z"/>
							</g>
							<g>
								<path class="st7" d="M426.8,246.2c-5.2,0-8.3,4.6-8.3,13.2c0,8.6,3.1,13.4,8.3,13.4c5.2,0,8.3-4.8,8.3-13.4
									C435.1,250.8,432,246.2,426.8,246.2z M426.8,270.1c-3.1,0-5.1-3.2-5.1-10.7c0-7.5,2-10.6,5.1-10.6c3,0,5,3,5,10.6
									C431.9,266.9,429.8,270.1,426.8,270.1z"/>
							</g>
							<g>
								<path class="st7" d="M474.1,246.7h-2.6c-1.4,0.8-3.1,1.5-5.5,1.9v2.1h4.7v18.9h-5.9v2.7h14.6v-2.7h-5.4V246.7z"/>
							</g>
							<g>
								<path class="st7" d="M515.3,246.2c-5.2,0-8.3,4.6-8.3,13.2c0,8.6,3.1,13.4,8.3,13.4c5.2,0,8.3-4.8,8.3-13.4
									C523.6,250.8,520.5,246.2,515.3,246.2z M515.3,270.1c-3.1,0-5.1-3.2-5.1-10.7c0-7.5,2-10.6,5.1-10.6c3,0,5,3,5,10.6
									C520.4,266.9,518.3,270.1,515.3,270.1z"/>
							</g>
							<g>
								<path class="st7" d="M562.2,246.7h-2.6c-1.4,0.8-3.1,1.5-5.5,1.9v2.1h4.7v18.9h-5.9v2.7h14.6v-2.7h-5.4V246.7z"/>
							</g>
							<g>
								<path class="st7" d="M343,291.4c-5.2,0-8.3,4.6-8.3,13.2c0,8.6,3.1,13.4,8.3,13.4c5.2,0,8.3-4.8,8.3-13.4
									C351.3,296,348.1,291.4,343,291.4z M343,315.3c-3.1,0-5.1-3.2-5.1-10.7c0-7.5,2-10.6,5.1-10.6c3,0,5,3,5,10.6
									C348,312.1,346,315.3,343,315.3z"/>
							</g>
							<g>
								<path class="st7" d="M429.2,291.9h-2.6c-1.4,0.8-3.1,1.5-5.5,1.9v2.1h4.7v18.9h-5.9v2.7h14.6v-2.7h-5.4V291.9z"/>
							</g>
							<g>
								<path class="st7" d="M474.1,291.9h-2.6c-1.4,0.8-3.1,1.5-5.5,1.9v2.1h4.7v18.9h-5.9v2.7h14.6v-2.7h-5.4V291.9z"/>
							</g>
							<g>
								<g>
									<path class="st7" d="M385.3,291.4c-5.2,0-8.3,4.6-8.3,13.2c0,8.6,3.1,13.4,8.3,13.4c5.2,0,8.3-4.8,8.3-13.4
										C393.6,296,390.5,291.4,385.3,291.4z M385.3,315.3c-3.1,0-5.1-3.2-5.1-10.7c0-7.5,2-10.6,5.1-10.6c3,0,5,3,5,10.6
										C390.4,312.1,388.3,315.3,385.3,315.3z"/>
								</g>
							</g>
							<g>
								<path class="st7" d="M559.8,291.4c-5.2,0-8.3,4.6-8.3,13.2c0,8.6,3.1,13.4,8.3,13.4c5.2,0,8.3-4.8,8.3-13.4
									C568.1,296,565,291.4,559.8,291.4z M559.8,315.3c-3.1,0-5.1-3.2-5.1-10.7c0-7.5,2-10.6,5.1-10.6c3,0,5,3,5,10.6
									C564.8,312.1,562.8,315.3,559.8,315.3z"/>
							</g>
						</g>
						<g>
							<g>
								<path class="st7" d="M345.3,380.4h-2.6c-1.4,0.8-3.1,1.5-5.5,1.9v2.1h4.7v18.9H336v2.7h14.6v-2.7h-5.4V380.4z"/>
							</g>
							<g>
								<path class="st7" d="M429.2,380.4h-2.6c-1.4,0.8-3.1,1.5-5.5,1.9v2.1h4.7v18.9h-5.9v2.7h14.6v-2.7h-5.4V380.4z"/>
							</g>
							<g>
								<path class="st7" d="M474.1,380.4h-2.6c-1.4,0.8-3.1,1.5-5.5,1.9v2.1h4.7v18.9h-5.9v2.7h14.6v-2.7h-5.4V380.4z"/>
							</g>
							<g>
								<path class="st7" d="M385.3,379.9c-5.2,0-8.3,4.6-8.3,13.2c0,8.6,3.1,13.4,8.3,13.4c5.2,0,8.3-4.8,8.3-13.4
									C393.6,384.6,390.5,379.9,385.3,379.9z M385.3,403.9c-3.1,0-5.1-3.2-5.1-10.7c0-7.5,2-10.6,5.1-10.6c3,0,5,3,5,10.6
									C390.4,400.6,388.3,403.9,385.3,403.9z"/>
							</g>
							<g>
								<path class="st7" d="M515.3,379.9c-5.2,0-8.3,4.6-8.3,13.2c0,8.6,3.1,13.4,8.3,13.4c5.2,0,8.3-4.8,8.3-13.4
									C523.6,384.6,520.5,379.9,515.3,379.9z M515.3,403.9c-3.1,0-5.1-3.2-5.1-10.7c0-7.5,2-10.6,5.1-10.6c3,0,5,3,5,10.6
									C520.4,400.6,518.3,403.9,515.3,403.9z"/>
							</g>
							<g>
								<path class="st7" d="M562.2,380.4h-2.6c-1.4,0.8-3.1,1.5-5.5,1.9v2.1h4.7v18.9h-5.9v2.7h14.6v-2.7h-5.4V380.4z"/>
							</g>
							<g>
								<g>
									<path class="st7" d="M343,425.1c-5.2,0-8.3,4.6-8.3,13.2c0,8.6,3.1,13.4,8.3,13.4c5.2,0,8.3-4.8,8.3-13.4
										C351.3,429.7,348.1,425.1,343,425.1z M343,449c-3.1,0-5.1-3.2-5.1-10.7c0-7.5,2-10.6,5.1-10.6c3,0,5,3,5,10.6
										C348,445.8,346,449,343,449z"/>
								</g>
							</g>
							<g>
								<path class="st7" d="M429.2,425.6h-2.6c-1.4,0.8-3.1,1.5-5.5,1.9v2.1h4.7v18.9h-5.9v2.7h14.6v-2.7h-5.4V425.6z"/>
							</g>
							<g>
								<g>
									<path class="st7" d="M471.7,425.1c-5.2,0-8.3,4.6-8.3,13.2c0,8.6,3.1,13.4,8.3,13.4c5.2,0,8.3-4.8,8.3-13.4
										C480,429.7,476.9,425.1,471.7,425.1z M471.7,449c-3.1,0-5.1-3.2-5.1-10.7c0-7.5,2-10.6,5.1-10.6c3,0,5,3,5,10.6
										C476.7,445.8,474.7,449,471.7,449z"/>
								</g>
							</g>
							<g>
								<path class="st7" d="M385.3,425.1c-5.2,0-8.3,4.6-8.3,13.2c0,8.6,3.1,13.4,8.3,13.4c5.2,0,8.3-4.8,8.3-13.4
									C393.6,429.7,390.5,425.1,385.3,425.1z M385.3,449c-3.1,0-5.1-3.2-5.1-10.7c0-7.5,2-10.6,5.1-10.6c3,0,5,3,5,10.6
									C390.4,445.8,388.3,449,385.3,449z"/>
							</g>
							<g>
								<path class="st7" d="M517.7,425.6h-2.6c-1.4,0.8-3.1,1.5-5.5,1.9v2.1h4.7v18.9h-5.9v2.7H523v-2.7h-5.4V425.6z"/>
							</g>
							<g>
								<g>
									<path class="st7" d="M426.8,470.3c-5.2,0-8.3,4.6-8.3,13.2c0,8.6,3.1,13.4,8.3,13.4c5.2,0,8.3-4.8,8.3-13.4
										C435.1,474.9,432,470.3,426.8,470.3z M426.8,494.2c-3.1,0-5.1-3.2-5.1-10.7c0-7.5,2-10.6,5.1-10.6c3,0,5,3.1,5,10.6
										C431.9,491,429.8,494.2,426.8,494.2z"/>
								</g>
							</g>
							<g>
								<path class="st7" d="M474.1,470.7h-2.6c-1.4,0.8-3.1,1.5-5.5,1.9v2.1h4.7v18.9h-5.9v2.7h14.6v-2.7h-5.4V470.7z"/>
							</g>
							<g>
								<path class="st7" d="M515.3,470.3c-5.2,0-8.3,4.6-8.3,13.2c0,8.6,3.1,13.4,8.3,13.4c5.2,0,8.3-4.8,8.3-13.4
									C523.6,474.9,520.5,470.3,515.3,470.3z M515.3,494.2c-3.1,0-5.1-3.2-5.1-10.7c0-7.5,2-10.6,5.1-10.6c3,0,5,3.1,5,10.6
									C520.4,491,518.3,494.2,515.3,494.2z"/>
							</g>
							<g>
								<path class="st7" d="M562.2,470.7h-2.6c-1.4,0.8-3.1,1.5-5.5,1.9v2.1h4.7v18.9h-5.9v2.7h14.6v-2.7h-5.4V470.7z"/>
							</g>
							<g>
								<path class="st7" d="M343,515.4c-5.2,0-8.3,4.6-8.3,13.2c0,8.6,3.1,13.4,8.3,13.4c5.2,0,8.3-4.8,8.3-13.4
									C351.3,520,348.1,515.4,343,515.4z M343,539.3c-3.1,0-5.1-3.2-5.1-10.7c0-7.5,2-10.6,5.1-10.6c3,0,5,3.1,5,10.6
									C348,536.1,346,539.3,343,539.3z"/>
							</g>
							<g>
								<path class="st7" d="M429.2,515.9h-2.6c-1.4,0.8-3.1,1.5-5.5,1.9v2.1h4.7v18.9h-5.9v2.7h14.6v-2.7h-5.4V515.9z"/>
							</g>
							<g>
								<path class="st7" d="M474.1,515.9h-2.6c-1.4,0.8-3.1,1.5-5.5,1.9v2.1h4.7v18.9h-5.9v2.7h14.6v-2.7h-5.4V515.9z"/>
							</g>
							<g>
								<path class="st7" d="M385.3,515.4c-5.2,0-8.3,4.6-8.3,13.2c0,8.6,3.1,13.4,8.3,13.4c5.2,0,8.3-4.8,8.3-13.4
									C393.6,520,390.5,515.4,385.3,515.4z M385.3,539.3c-3.1,0-5.1-3.2-5.1-10.7c0-7.5,2-10.6,5.1-10.6c3,0,5,3.1,5,10.6
									C390.4,536.1,388.3,539.3,385.3,539.3z"/>
							</g>
							<g>
								<path class="st7" d="M515.3,515.4c-5.2,0-8.3,4.6-8.3,13.2c0,8.6,3.1,13.4,8.3,13.4c5.2,0,8.3-4.8,8.3-13.4
									C523.6,520,520.5,515.4,515.3,515.4z M515.3,539.3c-3.1,0-5.1-3.2-5.1-10.7c0-7.5,2-10.6,5.1-10.6c3,0,5,3.1,5,10.6
									C520.4,536.1,518.3,539.3,515.3,539.3z"/>
							</g>
							<g>
								<path class="st7" d="M559.8,515.4c-5.2,0-8.3,4.6-8.3,13.2c0,8.6,3.1,13.4,8.3,13.4c5.2,0,8.3-4.8,8.3-13.4
									C568.1,520,565,515.4,559.8,515.4z M559.8,539.3c-3.1,0-5.1-3.2-5.1-10.7c0-7.5,2-10.6,5.1-10.6c3,0,5,3.1,5,10.6
									C564.8,536.1,562.8,539.3,559.8,539.3z"/>
							</g>
						</g>
					</g>
					<g>
						<g>
							<g>
								<path class="st7" d="M607.1,156.2h-2.6c-1.4,0.8-3.1,1.5-5.5,1.9v2.1h4.7V179h-5.9v2.7h14.6V179h-5.4V156.2z"/>
							</g>
							<g>
								<path class="st7" d="M690.9,156.2h-2.6c-1.4,0.8-3.1,1.5-5.5,1.9v2.1h4.7V179h-5.9v2.7h14.6V179h-5.4V156.2z"/>
							</g>
							<g>
								<path class="st7" d="M647.1,155.7c-5.2,0-8.3,4.6-8.3,13.2c0,8.6,3.1,13.4,8.3,13.4c5.2,0,8.3-4.8,8.3-13.4
									C655.4,160.3,652.2,155.7,647.1,155.7z M647.1,179.6c-3.1,0-5.1-3.2-5.1-10.7c0-7.5,2-10.6,5.1-10.6c3,0,5,3,5,10.6
									C652.1,176.4,650.1,179.6,647.1,179.6z"/>
							</g>
							<g>
								<path class="st7" d="M604.7,200.8c-5.2,0-8.3,4.6-8.3,13.2c0,8.6,3.1,13.4,8.3,13.4c5.2,0,8.3-4.8,8.3-13.4
									C613,205.4,609.9,200.8,604.7,200.8z M604.7,224.8c-3.1,0-5.1-3.2-5.1-10.7c0-7.5,2-10.6,5.1-10.6c3,0,5,3,5,10.6
									C609.7,221.5,607.7,224.8,604.7,224.8z"/>
							</g>
							<g>
								<path class="st7" d="M690.9,201.3h-2.6c-1.4,0.8-3.1,1.5-5.5,1.9v2.1h4.7v18.9h-5.9v2.7h14.6v-2.7h-5.4V201.3z"/>
							</g>
							<g>
								<path class="st7" d="M733.4,200.8c-5.2,0-8.3,4.6-8.3,13.2c0,8.6,3.1,13.4,8.3,13.4c5.2,0,8.3-4.8,8.3-13.4
									C741.7,205.4,738.6,200.8,733.4,200.8z M733.4,224.8c-3.1,0-5.1-3.2-5.1-10.7c0-7.5,2-10.6,5.1-10.6c3,0,5,3,5,10.6
									C738.5,221.5,736.4,224.8,733.4,224.8z"/>
							</g>
							<g>
								<path class="st7" d="M647.1,200.8c-5.2,0-8.3,4.6-8.3,13.2c0,8.6,3.1,13.4,8.3,13.4c5.2,0,8.3-4.8,8.3-13.4
									C655.4,205.4,652.2,200.8,647.1,200.8z M647.1,224.8c-3.1,0-5.1-3.2-5.1-10.7c0-7.5,2-10.6,5.1-10.6c3,0,5,3,5,10.6
									C652.1,221.5,650.1,224.8,647.1,224.8z"/>
							</g>
							<g>
								<path class="st7" d="M779.4,201.3h-2.6c-1.4,0.8-3.1,1.5-5.5,1.9v2.1h4.7v18.9h-5.9v2.7h14.6v-2.7h-5.4V201.3z"/>
							</g>
							<g>
								<path class="st7" d="M821.5,200.8c-5.2,0-8.3,4.6-8.3,13.2c0,8.6,3.1,13.4,8.3,13.4c5.2,0,8.3-4.8,8.3-13.4
									C829.8,205.4,826.7,200.8,821.5,200.8z M821.5,224.8c-3.1,0-5.1-3.2-5.1-10.7c0-7.5,2-10.6,5.1-10.6c3,0,5,3,5,10.6
									C826.6,221.5,824.5,224.8,821.5,224.8z"/>
							</g>
							<g>
								<path class="st7" d="M607.1,246.5h-2.6c-1.4,0.8-3.1,1.5-5.5,1.9v2.1h4.7v18.9h-5.9v2.7h14.6v-2.7h-5.4V246.5z"/>
							</g>
							<g>
								<path class="st7" d="M688.6,246c-5.2,0-8.3,4.6-8.3,13.2c0,8.6,3.1,13.4,8.3,13.4c5.2,0,8.3-4.8,8.3-13.4
									C696.9,250.6,693.7,246,688.6,246z M688.6,269.9c-3.1,0-5.1-3.2-5.1-10.7c0-7.5,2-10.6,5.1-10.6c3,0,5,3,5,10.6
									C693.6,266.7,691.6,269.9,688.6,269.9z"/>
							</g>
							<g>
								<path class="st7" d="M735.8,246.5h-2.6c-1.4,0.8-3.1,1.5-5.5,1.9v2.1h4.7v18.9h-5.9v2.7h14.6v-2.7h-5.4V246.5z"/>
							</g>
							<g>
								<path class="st7" d="M647.1,246c-5.2,0-8.3,4.6-8.3,13.2c0,8.6,3.1,13.4,8.3,13.4c5.2,0,8.3-4.8,8.3-13.4
									C655.4,250.6,652.2,246,647.1,246z M647.1,269.9c-3.1,0-5.1-3.2-5.1-10.7c0-7.5,2-10.6,5.1-10.6c3,0,5,3,5,10.6
									C652.1,266.7,650.1,269.9,647.1,269.9z"/>
							</g>
							<g>
								<path class="st7" d="M777.1,246c-5.2,0-8.3,4.6-8.3,13.2c0,8.6,3.1,13.4,8.3,13.4c5.2,0,8.3-4.8,8.3-13.4
									C785.4,250.6,782.2,246,777.1,246z M777.1,269.9c-3.1,0-5.1-3.2-5.1-10.7c0-7.5,2-10.6,5.1-10.6c3,0,5,3,5,10.6
									C782.1,266.7,780.1,269.9,777.1,269.9z"/>
							</g>
							<g>
								<path class="st7" d="M823.9,246.5h-2.6c-1.4,0.8-3.1,1.5-5.5,1.9v2.1h4.7v18.9h-5.9v2.7h14.6v-2.7h-5.4V246.5z"/>
							</g>
							<g>
								<path class="st7" d="M604.7,291.2c-5.2,0-8.3,4.6-8.3,13.2c0,8.6,3.1,13.4,8.3,13.4c5.2,0,8.3-4.8,8.3-13.4
									C613,295.8,609.9,291.2,604.7,291.2z M604.7,315.1c-3.1,0-5.1-3.2-5.1-10.7c0-7.5,2-10.6,5.1-10.6c3,0,5,3,5,10.6
									C609.7,311.9,607.7,315.1,604.7,315.1z"/>
							</g>
							<g>
								<path class="st7" d="M690.9,291.6h-2.6c-1.4,0.8-3.1,1.5-5.5,1.9v2.1h4.7v18.9h-5.9v2.7h14.6v-2.7h-5.4V291.6z"/>
							</g>
							<g>
								<path class="st7" d="M735.8,291.6h-2.6c-1.4,0.8-3.1,1.5-5.5,1.9v2.1h4.7v18.9h-5.9v2.7h14.6v-2.7h-5.4V291.6z"/>
							</g>
							<g>
								<g>
									<path class="st7" d="M647.1,291.2c-5.2,0-8.3,4.6-8.3,13.2c0,8.6,3.1,13.4,8.3,13.4c5.2,0,8.3-4.8,8.3-13.4
										C655.4,295.8,652.2,291.2,647.1,291.2z M647.1,315.1c-3.1,0-5.1-3.2-5.1-10.7c0-7.5,2-10.6,5.1-10.6c3,0,5,3,5,10.6
										C652.1,311.9,650.1,315.1,647.1,315.1z"/>
								</g>
							</g>
							<g>
								<path class="st7" d="M777.1,291.2c-5.2,0-8.3,4.6-8.3,13.2c0,8.6,3.1,13.4,8.3,13.4c5.2,0,8.3-4.8,8.3-13.4
									C785.4,295.8,782.2,291.2,777.1,291.2z M777.1,315.1c-3.1,0-5.1-3.2-5.1-10.7c0-7.5,2-10.6,5.1-10.6c3,0,5,3,5,10.6
									C782.1,311.9,780.1,315.1,777.1,315.1z"/>
							</g>
							<g>
								<path class="st7" d="M821.5,291.2c-5.2,0-8.3,4.6-8.3,13.2c0,8.6,3.1,13.4,8.3,13.4c5.2,0,8.3-4.8,8.3-13.4
									C829.8,295.8,826.7,291.2,821.5,291.2z M821.5,315.1c-3.1,0-5.1-3.2-5.1-10.7c0-7.5,2-10.6,5.1-10.6c3,0,5,3,5,10.6
									C826.6,311.9,824.5,315.1,821.5,315.1z"/>
							</g>
						</g>
						<g>
							<g>
								<path class="st7" d="M607.1,380.2h-2.6c-1.4,0.8-3.1,1.5-5.5,1.9v2.1h4.7v18.9h-5.9v2.7h14.6v-2.7h-5.4V380.2z"/>
							</g>
							<g>
								<path class="st7" d="M690.9,380.2h-2.6c-1.4,0.8-3.1,1.5-5.5,1.9v2.1h4.7v18.9h-5.9v2.7h14.6v-2.7h-5.4V380.2z"/>
							</g>
							<g>
								<path class="st7" d="M735.8,380.2h-2.6c-1.4,0.8-3.1,1.5-5.5,1.9v2.1h4.7v18.9h-5.9v2.7h14.6v-2.7h-5.4V380.2z"/>
							</g>
							<g>
								<path class="st7" d="M647.1,379.7c-5.2,0-8.3,4.6-8.3,13.2c0,8.6,3.1,13.4,8.3,13.4c5.2,0,8.3-4.8,8.3-13.4
									C655.4,384.3,652.2,379.7,647.1,379.7z M647.1,403.6c-3.1,0-5.1-3.2-5.1-10.7c0-7.5,2-10.6,5.1-10.6c3,0,5,3,5,10.6
									C652.1,400.4,650.1,403.6,647.1,403.6z"/>
							</g>
							<g>
								<path class="st7" d="M777.1,379.7c-5.2,0-8.3,4.6-8.3,13.2c0,8.6,3.1,13.4,8.3,13.4c5.2,0,8.3-4.8,8.3-13.4
									C785.4,384.3,782.2,379.7,777.1,379.7z M777.1,403.6c-3.1,0-5.1-3.2-5.1-10.7c0-7.5,2-10.6,5.1-10.6c3,0,5,3,5,10.6
									C782.1,400.4,780.1,403.6,777.1,403.6z"/>
							</g>
							<g>
								<path class="st7" d="M823.9,380.2h-2.6c-1.4,0.8-3.1,1.5-5.5,1.9v2.1h4.7v18.9h-5.9v2.7h14.6v-2.7h-5.4V380.2z"/>
							</g>
							<g>
								<g>
									<path class="st7" d="M604.7,424.9c-5.2,0-8.3,4.6-8.3,13.2c0,8.6,3.1,13.4,8.3,13.4c5.2,0,8.3-4.8,8.3-13.4
										C613,429.5,609.9,424.9,604.7,424.9z M604.7,448.8c-3.1,0-5.1-3.2-5.1-10.7c0-7.5,2-10.6,5.1-10.6c3,0,5,3,5,10.6
										C609.7,445.6,607.7,448.8,604.7,448.8z"/>
								</g>
							</g>
							<g>
								<g>
									<path class="st7" d="M733.4,424.9c-5.2,0-8.3,4.6-8.3,13.2c0,8.6,3.1,13.4,8.3,13.4c5.2,0,8.3-4.8,8.3-13.4
										C741.7,429.5,738.6,424.9,733.4,424.9z M733.4,448.8c-3.1,0-5.1-3.2-5.1-10.7c0-7.5,2-10.6,5.1-10.6c3,0,5,3,5,10.6
										C738.5,445.6,736.4,448.8,733.4,448.8z"/>
								</g>
							</g>
							<g>
								<path class="st7" d="M779.4,425.4h-2.6c-1.4,0.8-3.1,1.5-5.5,1.9v2.1h4.7v18.9h-5.9v2.7h14.6v-2.7h-5.4V425.4z"/>
							</g>
							<g>
								<path class="st7" d="M821.5,424.9c-5.2,0-8.3,4.6-8.3,13.2c0,8.6,3.1,13.4,8.3,13.4c5.2,0,8.3-4.8,8.3-13.4
									C829.8,429.5,826.7,424.9,821.5,424.9z M821.5,448.8c-3.1,0-5.1-3.2-5.1-10.7c0-7.5,2-10.6,5.1-10.6c3,0,5,3,5,10.6
									C826.6,445.6,824.5,448.8,821.5,448.8z"/>
							</g>
							<g>
								<path class="st7" d="M777.1,470c-5.2,0-8.3,4.6-8.3,13.2c0,8.6,3.1,13.4,8.3,13.4c5.2,0,8.3-4.8,8.3-13.4
									C785.4,474.6,782.2,470,777.1,470z M777.1,494c-3.1,0-5.1-3.2-5.1-10.7c0-7.5,2-10.6,5.1-10.6c3,0,5,3.1,5,10.6
									C782.1,490.7,780.1,494,777.1,494z"/>
							</g>
							<g>
								<path class="st7" d="M823.9,470.5h-2.6c-1.4,0.8-3.1,1.5-5.5,1.9v2.1h4.7v18.9h-5.9v2.7h14.6v-2.7h-5.4V470.5z"/>
							</g>
							<g>
								<path class="st7" d="M777.1,515.2c-5.2,0-8.3,4.6-8.3,13.2c0,8.6,3.1,13.4,8.3,13.4c5.2,0,8.3-4.8,8.3-13.4
									C785.4,519.8,782.2,515.2,777.1,515.2z M777.1,539.1c-3.1,0-5.1-3.2-5.1-10.7c0-7.5,2-10.6,5.1-10.6c3,0,5,3.1,5,10.6
									C782.1,535.9,780.1,539.1,777.1,539.1z"/>
							</g>
							<g>
								<path class="st7" d="M821.5,515.2c-5.2,0-8.3,4.6-8.3,13.2c0,8.6,3.1,13.4,8.3,13.4c5.2,0,8.3-4.8,8.3-13.4
									C829.8,519.8,826.7,515.2,821.5,515.2z M821.5,539.1c-3.1,0-5.1-3.2-5.1-10.7c0-7.5,2-10.6,5.1-10.6c3,0,5,3.1,5,10.6
									C826.6,535.9,824.5,539.1,821.5,539.1z"/>
							</g>
						</g>
					</g>
					<g>
						<g>
							<g>
								<path class="st7" d="M952.7,155.9h-2.6c-1.4,0.8-3.1,1.5-5.5,1.9v2.1h4.7v18.9h-5.9v2.7H958v-2.7h-5.4V155.9z"/>
							</g>
							<g>
								<g>
									<path class="st7" d="M997.5,155.9H995c-1.4,0.8-3.1,1.5-5.5,1.9v2.1h4.7v18.9h-5.9v2.7h14.6v-2.7h-5.4V155.9z"/>
								</g>
							</g>
							<g>
								<path class="st7" d="M908.8,155.5c-5.2,0-8.3,4.6-8.3,13.2c0,8.6,3.1,13.4,8.3,13.4c5.2,0,8.3-4.8,8.3-13.4
									C917.1,160.1,914,155.5,908.8,155.5z M908.8,179.4c-3.1,0-5.1-3.2-5.1-10.7c0-7.5,2-10.6,5.1-10.6c3,0,5,3,5,10.6
									C913.8,176.2,911.8,179.4,908.8,179.4z"/>
							</g>
							<g>
								<path class="st7" d="M1038.8,155.5c-5.2,0-8.3,4.6-8.3,13.2c0,8.6,3.1,13.4,8.3,13.4c5.2,0,8.3-4.8,8.3-13.4
									C1047.1,160.1,1044,155.5,1038.8,155.5z M1038.8,179.4c-3.1,0-5.1-3.2-5.1-10.7c0-7.5,2-10.6,5.1-10.6c3,0,5,3,5,10.6
									C1043.8,176.2,1041.8,179.4,1038.8,179.4z"/>
							</g>
							<g>
								<path class="st7" d="M1085.6,155.9h-2.6c-1.4,0.8-3.1,1.5-5.5,1.9v2.1h4.7v18.9h-5.9v2.7h14.6v-2.7h-5.4V155.9z"/>
							</g>
							<g>
								<path class="st7" d="M866.4,200.6c-5.2,0-8.3,4.6-8.3,13.2c0,8.6,3.1,13.4,8.3,13.4c5.2,0,8.3-4.8,8.3-13.4
									C874.7,205.2,871.6,200.6,866.4,200.6z M866.4,224.5c-3.1,0-5.1-3.2-5.1-10.7c0-7.5,2-10.6,5.1-10.6c3,0,5,3,5,10.6
									C871.5,221.3,869.5,224.5,866.4,224.5z"/>
							</g>
							<g>
								<path class="st7" d="M952.7,201.1h-2.6c-1.4,0.8-3.1,1.5-5.5,1.9v2.1h4.7V224h-5.9v2.7H958V224h-5.4V201.1z"/>
							</g>
							<g>
								<path class="st7" d="M995.2,200.6c-5.2,0-8.3,4.6-8.3,13.2c0,8.6,3.1,13.4,8.3,13.4c5.2,0,8.3-4.8,8.3-13.4
									C1003.5,205.2,1000.4,200.6,995.2,200.6z M995.2,224.5c-3.1,0-5.1-3.2-5.1-10.7c0-7.5,2-10.6,5.1-10.6c3,0,5,3,5,10.6
									C1000.2,221.3,998.2,224.5,995.2,224.5z"/>
							</g>
							<g>
								<path class="st7" d="M908.8,200.6c-5.2,0-8.3,4.6-8.3,13.2c0,8.6,3.1,13.4,8.3,13.4c5.2,0,8.3-4.8,8.3-13.4
									C917.1,205.2,914,200.6,908.8,200.6z M908.8,224.5c-3.1,0-5.1-3.2-5.1-10.7c0-7.5,2-10.6,5.1-10.6c3,0,5,3,5,10.6
									C913.8,221.3,911.8,224.5,908.8,224.5z"/>
							</g>
							<g>
								<path class="st7" d="M1041.2,201.1h-2.6c-1.4,0.8-3.1,1.5-5.5,1.9v2.1h4.7V224h-5.9v2.7h14.6V224h-5.4V201.1z"/>
							</g>
							<g>
								<path class="st7" d="M1083.3,200.6c-5.2,0-8.3,4.6-8.3,13.2c0,8.6,3.1,13.4,8.3,13.4c5.2,0,8.3-4.8,8.3-13.4
									C1091.6,205.2,1088.4,200.6,1083.3,200.6z M1083.3,224.5c-3.1,0-5.1-3.2-5.1-10.7c0-7.5,2-10.6,5.1-10.6c3,0,5,3,5,10.6
									C1088.3,221.3,1086.3,224.5,1083.3,224.5z"/>
							</g>
							<g>
								<path class="st7" d="M868.8,246.3h-2.6c-1.4,0.8-3.1,1.5-5.5,1.9v2.1h4.7v18.9h-5.9v2.7h14.6v-2.7h-5.4V246.3z"/>
							</g>
							<g>
								<path class="st7" d="M950.3,245.8c-5.2,0-8.3,4.6-8.3,13.2c0,8.6,3.1,13.4,8.3,13.4c5.2,0,8.3-4.8,8.3-13.4
									C958.6,250.4,955.5,245.8,950.3,245.8z M950.3,269.7c-3.1,0-5.1-3.2-5.1-10.7c0-7.5,2-10.6,5.1-10.6c3,0,5,3,5,10.6
									C955.3,266.5,953.3,269.7,950.3,269.7z"/>
							</g>
							<g>
								<path class="st7" d="M997.5,246.3H995c-1.4,0.8-3.1,1.5-5.5,1.9v2.1h4.7v18.9h-5.9v2.7h14.6v-2.7h-5.4V246.3z"/>
							</g>
							<g>
								<path class="st7" d="M908.8,245.8c-5.2,0-8.3,4.6-8.3,13.2c0,8.6,3.1,13.4,8.3,13.4c5.2,0,8.3-4.8,8.3-13.4
									C917.1,250.4,914,245.8,908.8,245.8z M908.8,269.7c-3.1,0-5.1-3.2-5.1-10.7c0-7.5,2-10.6,5.1-10.6c3,0,5,3,5,10.6
									C913.8,266.5,911.8,269.7,908.8,269.7z"/>
							</g>
							<g>
								<path class="st7" d="M1038.8,245.8c-5.2,0-8.3,4.6-8.3,13.2c0,8.6,3.1,13.4,8.3,13.4c5.2,0,8.3-4.8,8.3-13.4
									C1047.1,250.4,1044,245.8,1038.8,245.8z M1038.8,269.7c-3.1,0-5.1-3.2-5.1-10.7c0-7.5,2-10.6,5.1-10.6c3,0,5,3,5,10.6
									C1043.8,266.5,1041.8,269.7,1038.8,269.7z"/>
							</g>
							<g>
								<path class="st7" d="M1085.6,246.3h-2.6c-1.4,0.8-3.1,1.5-5.5,1.9v2.1h4.7v18.9h-5.9v2.7h14.6v-2.7h-5.4V246.3z"/>
							</g>
							<g>
								<path class="st7" d="M866.4,290.9c-5.2,0-8.3,4.6-8.3,13.2s3.1,13.4,8.3,13.4c5.2,0,8.3-4.8,8.3-13.4
									S871.6,290.9,866.4,290.9z M866.4,314.9c-3.1,0-5.1-3.2-5.1-10.7c0-7.5,2-10.6,5.1-10.6c3,0,5,3,5,10.6
									C871.5,311.6,869.5,314.9,866.4,314.9z"/>
							</g>
							<g>
								<path class="st7" d="M952.7,291.4h-2.6c-1.4,0.8-3.1,1.5-5.5,1.9v2.1h4.7v18.9h-5.9v2.7H958v-2.7h-5.4V291.4z"/>
							</g>
							<g>
								<path class="st7" d="M997.5,291.4H995c-1.4,0.8-3.1,1.5-5.5,1.9v2.1h4.7v18.9h-5.9v2.7h14.6v-2.7h-5.4V291.4z"/>
							</g>
							<g>
								<g>
									<path class="st7" d="M908.8,290.9c-5.2,0-8.3,4.6-8.3,13.2s3.1,13.4,8.3,13.4c5.2,0,8.3-4.8,8.3-13.4
										S914,290.9,908.8,290.9z M908.8,314.9c-3.1,0-5.1-3.2-5.1-10.7c0-7.5,2-10.6,5.1-10.6c3,0,5,3,5,10.6
										C913.8,311.6,911.8,314.9,908.8,314.9z"/>
								</g>
							</g>
							<g>
								<path class="st7" d="M1038.8,290.9c-5.2,0-8.3,4.6-8.3,13.2s3.1,13.4,8.3,13.4c5.2,0,8.3-4.8,8.3-13.4
									S1044,290.9,1038.8,290.9z M1038.8,314.9c-3.1,0-5.1-3.2-5.1-10.7c0-7.5,2-10.6,5.1-10.6c3,0,5,3,5,10.6
									C1043.8,311.6,1041.8,314.9,1038.8,314.9z"/>
							</g>
							<g>
								<path class="st7" d="M1083.3,290.9c-5.2,0-8.3,4.6-8.3,13.2s3.1,13.4,8.3,13.4c5.2,0,8.3-4.8,8.3-13.4
									S1088.4,290.9,1083.3,290.9z M1083.3,314.9c-3.1,0-5.1-3.2-5.1-10.7c0-7.5,2-10.6,5.1-10.6c3,0,5,3,5,10.6
									C1088.3,311.6,1086.3,314.9,1083.3,314.9z"/>
							</g>
							<g>
								<g>
									<path class="st7" d="M868.8,336.6h-2.6c-1.4,0.8-3.1,1.5-5.5,1.9v2.1h4.7v18.9h-5.9v2.7h14.6v-2.7h-5.4V336.6z"/>
								</g>
							</g>
							<g>
								<path class="st7" d="M952.7,336.6h-2.6c-1.4,0.8-3.1,1.5-5.5,1.9v2.1h4.7v18.9h-5.9v2.7H958v-2.7h-5.4V336.6z"/>
							</g>
							<g>
								<path class="st7" d="M995.2,336.1c-5.2,0-8.3,4.6-8.3,13.2c0,8.6,3.1,13.4,8.3,13.4c5.2,0,8.3-4.8,8.3-13.4
									C1003.5,340.7,1000.4,336.1,995.2,336.1z M995.2,360c-3.1,0-5.1-3.2-5.1-10.7c0-7.5,2-10.6,5.1-10.6c3,0,5,3,5,10.6
									C1000.2,356.8,998.2,360,995.2,360z"/>
							</g>
							<g>
								<path class="st7" d="M908.8,336.1c-5.2,0-8.3,4.6-8.3,13.2c0,8.6,3.1,13.4,8.3,13.4c5.2,0,8.3-4.8,8.3-13.4
									C917.1,340.7,914,336.1,908.8,336.1z M908.8,360c-3.1,0-5.1-3.2-5.1-10.7c0-7.5,2-10.6,5.1-10.6c3,0,5,3,5,10.6
									C913.8,356.8,911.8,360,908.8,360z"/>
							</g>
							<g>
								<path class="st7" d="M1038.8,336.1c-5.2,0-8.3,4.6-8.3,13.2c0,8.6,3.1,13.4,8.3,13.4c5.2,0,8.3-4.8,8.3-13.4
									C1047.1,340.7,1044,336.1,1038.8,336.1z M1038.8,360c-3.1,0-5.1-3.2-5.1-10.7c0-7.5,2-10.6,5.1-10.6c3,0,5,3,5,10.6
									C1043.8,356.8,1041.8,360,1038.8,360z"/>
							</g>
							<g>
								<path class="st7" d="M1085.6,336.6h-2.6c-1.4,0.8-3.1,1.5-5.5,1.9v2.1h4.7v18.9h-5.9v2.7h14.6v-2.7h-5.4V336.6z"/>
							</g>
						</g>
						<g>
							<g>
								<path class="st7" d="M868.8,380h-2.6c-1.4,0.8-3.1,1.5-5.5,1.9v2.1h4.7v18.9h-5.9v2.7h14.6v-2.7h-5.4V380z"/>
							</g>
							<g>
								<path class="st7" d="M952.7,380h-2.6c-1.4,0.8-3.1,1.5-5.5,1.9v2.1h4.7v18.9h-5.9v2.7H958v-2.7h-5.4V380z"/>
							</g>
							<g>
								<path class="st7" d="M997.5,380H995c-1.4,0.8-3.1,1.5-5.5,1.9v2.1h4.7v18.9h-5.9v2.7h14.6v-2.7h-5.4V380z"/>
							</g>
							<g>
								<path class="st7" d="M908.8,379.5c-5.2,0-8.3,4.6-8.3,13.2c0,8.6,3.1,13.4,8.3,13.4c5.2,0,8.3-4.8,8.3-13.4
									C917.1,384.1,914,379.5,908.8,379.5z M908.8,403.4c-3.1,0-5.1-3.2-5.1-10.7c0-7.5,2-10.6,5.1-10.6c3,0,5,3,5,10.6
									C913.8,400.2,911.8,403.4,908.8,403.4z"/>
							</g>
							<g>
								<path class="st7" d="M1038.8,379.5c-5.2,0-8.3,4.6-8.3,13.2c0,8.6,3.1,13.4,8.3,13.4c5.2,0,8.3-4.8,8.3-13.4
									C1047.1,384.1,1044,379.5,1038.8,379.5z M1038.8,403.4c-3.1,0-5.1-3.2-5.1-10.7c0-7.5,2-10.6,5.1-10.6c3,0,5,3,5,10.6
									C1043.8,400.2,1041.8,403.4,1038.8,403.4z"/>
							</g>
							<g>
								<path class="st7" d="M1085.6,380h-2.6c-1.4,0.8-3.1,1.5-5.5,1.9v2.1h4.7v18.9h-5.9v2.7h14.6v-2.7h-5.4V380z"/>
							</g>
							<g>
								<g>
									<path class="st7" d="M866.4,424.7c-5.2,0-8.3,4.6-8.3,13.2c0,8.6,3.1,13.4,8.3,13.4c5.2,0,8.3-4.8,8.3-13.4
										C874.7,429.3,871.6,424.7,866.4,424.7z M866.4,448.6c-3.1,0-5.1-3.2-5.1-10.7c0-7.5,2-10.6,5.1-10.6c3,0,5,3,5,10.6
										C871.5,445.4,869.5,448.6,866.4,448.6z"/>
								</g>
							</g>
							<g>
								<path class="st7" d="M952.7,425.1h-2.6c-1.4,0.8-3.1,1.5-5.5,1.9v2.1h4.7V448h-5.9v2.7H958V448h-5.4V425.1z"/>
							</g>
							<g>
								<g>
									<path class="st7" d="M995.2,424.7c-5.2,0-8.3,4.6-8.3,13.2c0,8.6,3.1,13.4,8.3,13.4c5.2,0,8.3-4.8,8.3-13.4
										C1003.5,429.3,1000.4,424.7,995.2,424.7z M995.2,448.6c-3.1,0-5.1-3.2-5.1-10.7c0-7.5,2-10.6,5.1-10.6c3,0,5,3,5,10.6
										C1000.2,445.4,998.2,448.6,995.2,448.6z"/>
								</g>
							</g>
							<g>
								<path class="st7" d="M908.8,424.7c-5.2,0-8.3,4.6-8.3,13.2c0,8.6,3.1,13.4,8.3,13.4c5.2,0,8.3-4.8,8.3-13.4
									C917.1,429.3,914,424.7,908.8,424.7z M908.8,448.6c-3.1,0-5.1-3.2-5.1-10.7c0-7.5,2-10.6,5.1-10.6c3,0,5,3,5,10.6
									C913.8,445.4,911.8,448.6,908.8,448.6z"/>
							</g>
							<g>
								<path class="st7" d="M1041.2,425.1h-2.6c-1.4,0.8-3.1,1.5-5.5,1.9v2.1h4.7V448h-5.9v2.7h14.6V448h-5.4V425.1z"/>
							</g>
							<g>
								<path class="st7" d="M1083.3,424.7c-5.2,0-8.3,4.6-8.3,13.2c0,8.6,3.1,13.4,8.3,13.4c5.2,0,8.3-4.8,8.3-13.4
									C1091.6,429.3,1088.4,424.7,1083.3,424.7z M1083.3,448.6c-3.1,0-5.1-3.2-5.1-10.7c0-7.5,2-10.6,5.1-10.6c3,0,5,3,5,10.6
									C1088.3,445.4,1086.3,448.6,1083.3,448.6z"/>
							</g>
							<g>
								<path class="st7" d="M868.8,470.3h-2.6c-1.4,0.8-3.1,1.5-5.5,1.9v2.1h4.7v18.9h-5.9v2.7h14.6v-2.7h-5.4V470.3z"/>
							</g>
							<g>
								<g>
									<path class="st7" d="M950.3,469.8c-5.2,0-8.3,4.6-8.3,13.2c0,8.6,3.1,13.4,8.3,13.4c5.2,0,8.3-4.8,8.3-13.4
										C958.6,474.4,955.5,469.8,950.3,469.8z M950.3,493.7c-3.1,0-5.1-3.2-5.1-10.7c0-7.5,2-10.6,5.1-10.6c3,0,5,3.1,5,10.6
										C955.3,490.5,953.3,493.7,950.3,493.7z"/>
								</g>
							</g>
							<g>
								<path class="st7" d="M997.5,470.3H995c-1.4,0.8-3.1,1.5-5.5,1.9v2.1h4.7v18.9h-5.9v2.7h14.6v-2.7h-5.4V470.3z"/>
							</g>
							<g>
								<path class="st7" d="M908.8,469.8c-5.2,0-8.3,4.6-8.3,13.2c0,8.6,3.1,13.4,8.3,13.4c5.2,0,8.3-4.8,8.3-13.4
									C917.1,474.4,914,469.8,908.8,469.8z M908.8,493.7c-3.1,0-5.1-3.2-5.1-10.7c0-7.5,2-10.6,5.1-10.6c3,0,5,3.1,5,10.6
									C913.8,490.5,911.8,493.7,908.8,493.7z"/>
							</g>
							<g>
								<path class="st7" d="M1038.8,469.8c-5.2,0-8.3,4.6-8.3,13.2c0,8.6,3.1,13.4,8.3,13.4c5.2,0,8.3-4.8,8.3-13.4
									C1047.1,474.4,1044,469.8,1038.8,469.8z M1038.8,493.7c-3.1,0-5.1-3.2-5.1-10.7c0-7.5,2-10.6,5.1-10.6c3,0,5,3.1,5,10.6
									C1043.8,490.5,1041.8,493.7,1038.8,493.7z"/>
							</g>
							<g>
								<path class="st7" d="M1085.6,470.3h-2.6c-1.4,0.8-3.1,1.5-5.5,1.9v2.1h4.7v18.9h-5.9v2.7h14.6v-2.7h-5.4V470.3z"/>
							</g>
							<g>
								<path class="st7" d="M866.4,515c-5.2,0-8.3,4.6-8.3,13.2c0,8.6,3.1,13.4,8.3,13.4c5.2,0,8.3-4.8,8.3-13.4
									C874.7,519.6,871.6,515,866.4,515z M866.4,538.9c-3.1,0-5.1-3.2-5.1-10.7c0-7.5,2-10.6,5.1-10.6c3,0,5,3.1,5,10.6
									C871.5,535.7,869.5,538.9,866.4,538.9z"/>
							</g>
							<g>
								<path class="st7" d="M952.7,515.5h-2.6c-1.4,0.8-3.1,1.5-5.5,1.9v2.1h4.7v18.9h-5.9v2.7H958v-2.7h-5.4V515.5z"/>
							</g>
							<g>
								<path class="st7" d="M997.5,515.5H995c-1.4,0.8-3.1,1.5-5.5,1.9v2.1h4.7v18.9h-5.9v2.7h14.6v-2.7h-5.4V515.5z"/>
							</g>
							<g>
								<path class="st7" d="M908.8,515c-5.2,0-8.3,4.6-8.3,13.2c0,8.6,3.1,13.4,8.3,13.4c5.2,0,8.3-4.8,8.3-13.4
									C917.1,519.6,914,515,908.8,515z M908.8,538.9c-3.1,0-5.1-3.2-5.1-10.7c0-7.5,2-10.6,5.1-10.6c3,0,5,3.1,5,10.6
									C913.8,535.7,911.8,538.9,908.8,538.9z"/>
							</g>
							<g>
								<path class="st7" d="M1038.8,515c-5.2,0-8.3,4.6-8.3,13.2c0,8.6,3.1,13.4,8.3,13.4c5.2,0,8.3-4.8,8.3-13.4
									C1047.1,519.6,1044,515,1038.8,515z M1038.8,538.9c-3.1,0-5.1-3.2-5.1-10.7c0-7.5,2-10.6,5.1-10.6c3,0,5,3.1,5,10.6
									C1043.8,535.7,1041.8,538.9,1038.8,538.9z"/>
							</g>
							<g>
								<path class="st7" d="M1083.3,515c-5.2,0-8.3,4.6-8.3,13.2c0,8.6,3.1,13.4,8.3,13.4c5.2,0,8.3-4.8,8.3-13.4
									C1091.6,519.6,1088.4,515,1083.3,515z M1083.3,538.9c-3.1,0-5.1-3.2-5.1-10.7c0-7.5,2-10.6,5.1-10.6c3,0,5,3.1,5,10.6
									C1088.3,535.7,1086.3,538.9,1083.3,538.9z"/>
							</g>
						</g>
					</g>
				</g>
				<path class="st8" d="M390.7,243.9c0-0.5,0.1-1.1,0.1-1.6c0-14.9-12-26.9-26.9-26.9c-2.8,0-5.5,0.4-8.1,1.2c0-0.1,0-0.2,0-0.3
					c0-18.4-14.9-33.3-33.3-33.3c-14.7,0-27.1,9.5-31.5,22.6c-3.9-2.3-8.4-3.7-13.2-3.7c-14.2,0-25.8,11.5-25.8,25.8
					c0,1.6,0.2,3.2,0.5,4.8c-12.5,1.8-22,12.5-22,25.5c0,14.2,11.5,25.8,25.8,25.8h128c11.3,0,20.5-9.2,20.5-20.5
					C404.7,254.3,398.8,246.6,390.7,243.9z"/>
				<path class="st8" d="M873.5,149.2c0-0.5,0.1-1.1,0.1-1.6c0-14.9-12-26.9-26.9-26.9c-2.8,0-5.5,0.4-8.1,1.2c0-0.1,0-0.2,0-0.3
					c0-18.4-14.9-33.3-33.3-33.3c-14.7,0-27.1,9.5-31.5,22.6c-3.9-2.3-8.4-3.7-13.2-3.7c-14.2,0-25.8,11.5-25.8,25.8
					c0,1.6,0.2,3.2,0.5,4.8c-12.5,1.8-22,12.5-22,25.5c0,14.2,11.5,25.8,25.8,25.8h128c11.3,0,20.5-9.2,20.5-20.5
					C887.5,159.6,881.6,151.9,873.5,149.2z"/>
				<path class="st9" d="M748.3,499.4c0-0.6,0.1-1.2,0.1-1.8c0-16.3-13.2-29.5-29.5-29.5c-3.1,0-6.1,0.5-8.9,1.4c0-0.1,0-0.2,0-0.3
					c0-20.2-16.3-36.5-36.5-36.5c-16.1,0-29.7,10.4-34.6,24.8c-4.2-2.5-9.2-4-14.5-4c-15.6,0-28.3,12.7-28.3,28.3
					c0,1.8,0.2,3.5,0.5,5.2c-13.7,2-24.2,13.7-24.2,28c0,15.6,12.7,28.3,28.3,28.3h140.4c12.4,0,22.5-10.1,22.5-22.5
					C763.6,510.8,757.2,502.4,748.3,499.4z"/>
			</g>
		</g>
		<path class="st2" d="M537.4,634.4L537.4,634.4c-10.9,0-19.8-8.9-19.8-19.8l0,0c0-10.9,8.9-19.8,19.8-19.8l0,0
			c10.9,0,19.8,8.9,19.8,19.8l0,0C557.2,625.5,548.3,634.4,537.4,634.4z"/>
	</g>
	<g>
		<path class="st10" d="M823.3,351.2c0,7.4-3,14.2-7.9,19.1c-4.9,4.9-11.6,7.9-19.1,7.9H291.8c-14.9,0-27-12.1-27-27
			c0-7.5,3-14.2,7.9-19.1c4.9-4.9,11.6-7.9,19.1-7.9h504.5C811.2,324.2,823.3,336.3,823.3,351.2z"/>
		<path class="st11" d="M823.3,351.2c0,7.4-3,14.2-7.9,19.1c-4.9,4.9-11.6,7.9-19.1,7.9H742v-54h54.3
			C811.2,324.2,823.3,336.3,823.3,351.2z"/>
		<g>
			<path class="st12" d="M785.9,340.4c4.7,4.7,4.7,12.3,0,16.9c-4.7,4.7-12.3,4.7-16.9,0c-4.7-4.7-4.7-12.3,0-16.9
				C773.6,335.7,781.2,335.7,785.9,340.4z"/>
			<line class="st13" x1="785.9" y1="357.3" x2="795.4" y2="366.8"/>
		</g>
		<path class="st11" d="M299.6,369.8h-1.8c-0.3,0-0.6-0.3-0.6-0.6v-36c0-0.3,0.3-0.6,0.6-0.6h1.8c0.3,0,0.6,0.3,0.6,0.6v36
			C300.2,369.5,300,369.8,299.6,369.8z"/>
	</g>
</g>
<path class="st14" d="M948.3,371.9c-0.1,0.9-0.2,1.9-0.2,2.8c-1.1,2.1-1.4,5-1.5,7.2c0,1.8,0.6,2.7,1.6,3.4
	c-1.1,4.8-2,11.1,0.2,15.5v-29.9C948.4,371.2,948.3,371.5,948.3,371.9z M927.2,430.4c0,0-0.6,0.4-1.4,1.1c-0.1,0.1-0.3,0.2-0.4,0.3
	c0,0-0.1,0.1-0.1,0.1c-2.4,2.2-6.7,6.8-10.8,14.6c-4.2,8-8.5,24.4-11.6,36.6c-1-1-2-2.1-3-3.1l-39.3-59.5
	c22.2-17.7,37.3-42.3,43-70.4c6.5-31.7,0.2-64.1-17.6-91.1c-36.8-55.8-112.2-71.2-168-34.3c-27,17.9-45.5,45.2-52,76.9
	s-0.2,64.1,17.6,91.1c23.3,35.3,62,54.4,101.4,54.4c19.5,0,39.1-4.7,57.2-14.4l5.4,8.2c-0.3,1.2-0.6,3.1-0.5,5.3
	c-0.2,1.2-0.3,2.4-0.3,3.4c0,1.1,0.1,2,0.4,2.5c1,1.8,5.3,3.9,6.8,5.1s3.1,3.9,3.1,3.9c-0.3,0.7-0.4,1.2-0.1,1.5
	c1.4,1.3,19.1,26.7,33.4,42.9l31.4,47.5l13.9,21c-0.2,10.3-0.5,21.8-0.5,30.2c-0.7,16.6-1.7,41.7-2.4,56.8
	c9-2.2,15.6-10.7,15.6-20.7V420.6C938.6,422.5,931.5,427,927.2,430.4z M785.9,422.1c-53.2,0-96.3-43.1-96.3-96.3
	s43.1-96.3,96.3-96.3c53.2,0,96.3,43.1,96.3,96.3S839,422.1,785.9,422.1z M937,536.1l-18.8-28.4c5.3-7.8,10.3-16.7,15.4-26.1
	c0.9,4.4,1.9,8.5,3.1,12C938.4,498.6,937.5,525.7,937,536.1z"/>
<path class="st15" d="M942.4,798.9c-0.8,1.6-4.6,5.2-10,7.5c-5.3,2.4-16.6,3.5-10.3,5.6c6.3,2.1,13.6,0.8,17.3,0.2
	c3.7-0.6,7.3-0.7,11.7-0.7c5.8,0,5.8-0.4,5-6.9C955,795.7,945,793.8,942.4,798.9z"/>
<path class="st15" d="M1046.7,795.7c-0.3,1.8,2.2,7.3-2.3,11.3c-4.6,4-15,8.2-8.1,8.4c6.9,0.2,13.5-1.4,17-3.2
	c3.5-1.7,0.7-4.5,5.1-5.8c5.7-1.8,4.5-6,1.6-8.6C1056.1,789.1,1047.8,789.8,1046.7,795.7z"/>
<path class="st16" d="M1024.8,613.8c0,0,13.7-40.3-25.2-73.6c0,0-20.9,8.3-37.6,9.3c-13.2,0.8-19.8-0.4-19.8-0.4s-1.1,35.8-1.2,55.1
	L1024.8,613.8z"/>
<path class="st16" d="M946.4,571.2c-3.1,1.2-4.1,10.4-4.6,16.7c-0.5,6.3-2.9,72-3.7,83.9c-0.2,2-0.1,3.8,0,5.5
	c-0.1,1.1-0.2,2.2-0.1,3.5c0.8,19.3,4.9,80.3,4.5,117.5c0,0,1.1,2.4,3,3.3c2.8,1.3,7.5,0.4,10.3-0.6c2.6-29.3,21.7-90.1,9.6-119.3
	c-0.5-1.3-0.7-2.8-0.2-4.1c5.8-18.4,17.2-54.2,19.6-68.3C988.7,585.5,961.6,565.5,946.4,571.2z"/>
<path class="st16" d="M1029.5,686.6c-0.9-1-1.5-2.2-1.6-3.6c-1-20.1-0.7-65.6-3.8-79.9c-5.2-23.5-32.3-33.3-44.3-22.2
	c-2.4,2.2-2.9,14.7-1,20.7c1.9,6,17.5,73.1,21.1,84.5c0.5,1.6,1.1,3.1,1.7,4.4c0.2,1,0.5,2.1,0.9,3.3c6.5,18.2,33.1,68.6,43.6,104.3
	c0,0,1,1.5,3.1,1.6c2,0.1,7.8-0.8,11.4-3.3C1054.4,767.5,1053.3,712.3,1029.5,686.6z"/>
<g>
	<g>
		<path class="st17" d="M920.3,446.5c-6.5,12.6-13.6,45.9-15.2,51c0,0,17.1,4,12.2,19.1c8.5-10.1,15.9-23.6,23.6-37.8
			c3.9-7.2,9.4-4.9,9.4-4.9L933,430.4C933,430.4,926.4,434.8,920.3,446.5z"/>
		<path class="st17" d="M873.5,451.2c0,0-12.7,9.5-10.7,11.4c2,1.9,39.2,55.4,49,56.2c4,0.3,9.3-4.5,10.4-9.7c0.4-1.9,0.7-3.9,1-5.9
			C919.2,487.8,873.5,451.2,873.5,451.2z"/>
	</g>
	<g>
		<path class="st17" d="M920.3,446.5c-6.5,12.6-13.6,45.9-15.2,51c0,0,17.1,4,12.2,19.1c8.5-10.1,15.9-23.6,23.6-37.8
			c3.9-7.2,9.4-4.9,9.4-4.9L933,430.4C933,430.4,926.4,434.8,920.3,446.5z"/>
		<path class="st17" d="M873.5,451.2c0,0-12.7,9.5-10.7,11.4c2,1.9,39.2,55.4,49,56.2c4,0.3,9.3-4.5,10.4-9.7c0.4-1.9,0.7-3.9,1-5.9
			C919.2,487.8,873.5,451.2,873.5,451.2z"/>
	</g>
</g>
<path class="st18" d="M853.9,439.5c0,0-1,3-0.9,6.7l2.7-3.4L853.9,439.5z"/>
<g>
	<g>
		<path class="st19" d="M963.1,352c-3.4,1-5.2,5.4-6.4,8.4c-1.4,3.6-2.1,7.5-2.6,11.4c-0.3,2.7-0.5,5.5,0.6,8
			c0.5,1.3,1.4,2.4,2.2,3.5c0.5,0.6,1,1.3,1.6,1.7c0.6,0.4,1.5,0.7,2.2,0.4c1.1-0.4,1.5-1.7,1.8-2.8c2-7.2,4.1-14.5,8.2-20.7"/>
	</g>
	<g>
		<path class="st20" d="M959.3,374.8c-0.1-2.3-2.5-3.8-4.6-1.4c-1.7,2-2.2,5.7-2.3,8.4c-0.1,3.3,2.4,3.9,4.5,4.4"/>
	</g>
	<path class="st17" d="M931.2,431.8c5.4-4.5,17.2-12.9,35.1-12.3c12.4,0.4,46,2.4,49.8,10.7c1.9,4.2,4,47.5,1.2,62.5
		c-2.1,11.2-7.5,39-7.5,45.7c0,6.7,3.6,9.6,1.9,11.5c-3.8,4.4-29.5,6.2-41.6,6.2c-10.8,0-29.1-2.9-30-6.3c-1.4-5.1,2.1-4.9,2.6-10.3
		c0.5-5.4,1.8-40.2-0.1-45.9c-3.6-10.3-5.3-27.1-8.1-34.7C932.2,453.1,926.3,435.9,931.2,431.8z"/>
	<path class="st21" d="M1007.8,466.8c1.3,2.7,10,16.7,10,16.7l0.4,1.7c-0.2,2.9-0.5,5.5-0.9,7.5c-2.1,11.2-7.5,39-7.5,45.7
		c0,6.7,3.5,9.5,1.9,11.5c-3,4-51.6,13.1-49.2,1.8c0.2-1,40.8-32,41-33c1.9-8.9,3.5-15.3,4.3-21.8
		C1009.8,481.4,1006.6,464.1,1007.8,466.8z"/>
	<path class="st20" d="M962.2,404.7c0,0-0.1,14.1-0.7,14.7c-0.6,0.6-3.4,1.9-3.4,1.9s2,12.2,5.1,11.3c3.1-0.9,23.3-11.1,23.3-11.1
		s-2.9-1.2-2.9-2.3c0-1.1,2.7-23.3,2.7-23.3"/>
	<path class="st20" d="M976.3,353.6c-3,0.8-10.7-0.8-12.9,2.4c-2.1,3.2-4,11-4.8,13.1c-1.6,4.3-2.6,8.8-3.8,13.2
		c-1.5,5.7-4,16.3,1.6,21.1c1.6,1.4,2.3,1.8,4.3,2.2c2.7,0.5,5.3,1,8,1.5c4.1,0.7,8.7,1.6,12.8,0.3c5.5-1.8,8.5-9.3,9.9-14.4l8-29.2
		L976.3,353.6z"/>
	<path class="st22" d="M961.7,438.1c0,0-1.2,55-3.4,88.4l8.1,11.1l5.6-14c0,0,2.3-40.3-5.3-85.2L961.7,438.1z"/>
	<path class="st22" d="M959.8,433.3l0.2,0.8c0.4,1.4,0.9,2.8,1.7,4.1l0,0l5,0.4c0,0,3.4-1.8,3.8-3.7c0.4-1.9-5.5-5-5.5-5l-0.7,0.3
		C962.5,430.7,961,431.8,959.8,433.3L959.8,433.3z"/>
	<path class="st21" d="M984,415.7c0,0,3.2,2,5.7,5.7c-2.6,5.8-8.3,16.2-14.7,20.9c-3-8-10.1-12.6-10.1-12.6S982.2,426.7,984,415.7z"
		/>
	<path class="st21" d="M964.9,429.8c0,0-6.2,2.5-9.9,9.4c0,0-1.2-9.4,1.3-17.4c0,0,4.1-5.2,5.5-5.3
		C961.3,423.1,964.9,429.8,964.9,429.8z"/>
	<g>
		<g>
			<path class="st18" d="M960.1,551.8c-6.1,0.9-8.4,3.2-11.9,6.6c-0.3,0.3-0.6,0.6-0.5,1c0.1,0.5,0.7,0.7,1.1,0.8
				c2.9,0.5,3.3-1.4,6-2.5c1.8-0.8,3.6-1.5,5.4-2.3"/>
		</g>
		<g>
			<path class="st11" d="M989.7,637.9c-3.6,0-7.1-1.7-9.2-4.9L847.6,432c-3.3-5.1-2-11.9,3.1-15.2c5.1-3.3,11.9-2,15.2,3.1
				l132.8,201c3.3,5.1,2,11.9-3.1,15.2C993.8,637.3,991.7,637.9,989.7,637.9z"/>
			<path class="st23" d="M998.6,633.3c-0.8,1.1-1.7,2-2.9,2.8c-1.9,1.2-4,1.8-6.1,1.8c-3.6,0-7.1-1.7-9.2-4.9L847.6,432
				c-3.3-5.1-1.9-11.9,3.1-15.2c0.6-0.4,1.3-0.8,1.9-1c-2.6,3.6-2.9,8.5-0.3,12.5l132.8,201c2.1,3.2,5.6,4.9,9.2,4.9
				C995.8,634.2,997.2,633.9,998.6,633.3z"/>
			
				<ellipse transform="matrix(0.7071 -0.7071 0.7071 0.7071 0.5623 654.9089)" class="st24" cx="790.8" cy="326.8" rx="101.9" ry="101.9"/>
			<path class="st25" d="M870.1,286.7c-15.9-14.9-37.2-24-60.7-24c-49.1,0-88.9,39.8-88.9,88.8c0,14.4,3.4,28,9.5,40
				c-17.3-16.2-28-39.2-28-64.7c0-49.1,39.8-88.8,88.8-88.8C825.5,237.9,855.5,257.7,870.1,286.7z"/>
			<path class="st23" d="M790.9,440.8c-37.4,0-74-18.1-96.1-51.6c-16.9-25.6-22.9-56.3-16.7-86.4c6.1-30.1,23.6-56,49.3-72.9
				c52.9-34.9,124.4-20.3,159.3,32.6l0,0c16.9,25.6,22.9,56.3,16.7,86.4c-6.1,30.1-23.6,56-49.3,72.9
				C834.6,434.7,812.7,440.8,790.9,440.8z M790.6,229.2c-18.3,0-36.8,5.2-53.2,16c-21.6,14.2-36.3,36-41.5,61.3
				c-5.2,25.3-0.2,51.1,14.1,72.7c29.4,44.5,89.5,56.8,134,27.4c21.6-14.2,36.3-36,41.5-61.3c5.2-25.3,0.2-51.1-14.1-72.7l0,0
				C852.8,244.4,822,229.2,790.6,229.2z"/>
			<path class="st11" d="M790.9,447.1c-39.4,0-78.1-19.1-101.4-54.4c-17.9-27-24.1-59.4-17.6-91.1c6.5-31.7,24.9-59,52-76.9
				c55.8-36.9,131.2-21.5,168,34.3l0,0c17.9,27,24.1,59.4,17.6,91.1c-6.5,31.7-24.9,59-52,76.9C837,440.6,813.8,447.1,790.9,447.1z
				 M790.6,223.9c-19.3,0-38.8,5.5-56.1,16.9c-22.7,15-38.3,38-43.7,64.7c-5.5,26.7-0.2,53.9,14.8,76.7C736.6,429,800,442,847,411
				c22.7-15,38.3-38,43.7-64.7c5.5-26.7,0.2-53.9-14.8-76.7l0,0C856.2,240,823.7,223.9,790.6,223.9z"/>
		</g>
		<g>
			<path class="st20" d="M977.4,546.9c-4.8,1-17.5,4.8-18.8,5.4c-1.6,0.8-6.9,4.7-8.1,6c-4.8,4.8-2.3,7-4.2,13.5
				c-0.1,0.3-0.1,0.7-0.1,1c0,0.7,0.9,1.3,1.8,0.6c0.5,0.8,2,0.3,2.7-0.6c0,0.6,0.9,1.1,2.4,0.2c0.8-0.4,0.6-0.4,2.5-2
				c1.3-1.2,2.8-2.1,5.2-3.1c1.6-0.7,3.6-1.3,5-2.3c1.9-1.3,5.4-1.6,7.1-7.1c0.4-1.2,1.6-2,2.7-2.6c2.6-1.6,5.2-3.2,7.8-4.9"/>
		</g>
		<path class="st17" d="M1006.7,457.5c2,7.2,10.4,57.1,10.4,57.1L969.7,549l3.9,10.4c0,0,56.7-19,61.1-32c4.5-13,4.3-71.7-11.5-92.3
			c-5-6.6-15-9.9-15-9.9"/>
		<g>
			<path class="st18" d="M958.1,564.9l-2,1.6c-2,1.6-3.3,3.9-5.1,5.7c0.9-1.2,2.1-3,3.1-4.1C955.1,566.7,956.7,565.8,958.1,564.9
				L958.1,564.9z"/>
		</g>
		<g>
			<path class="st18" d="M955.5,561.8c-3.4,2.8-4.5,7.2-7,10.7C950.5,568.7,951.8,564.2,955.5,561.8L955.5,561.8z"/>
		</g>
		<g>
			<path class="st18" d="M952.5,559.2c-0.6,0.9-1.3,1.6-2,2.4c-1.8,2.5-2.6,5.7-3.5,8.6c0.3-2.6,1.2-5.1,2.4-7.5
				C950.2,561.4,951.5,560.5,952.5,559.2L952.5,559.2z"/>
		</g>
		<path class="st20" d="M858.1,450.9c0,0,2.4-6.3,3.2-7.9s1.5-3.1,2-2.8c0.5,0.4,0.6,1,0.4,2.3c-0.3,1.3-1.7,5.4-1.7,5.4"/>
	</g>
	<g>
		<path class="st19" d="M994.3,387.9c-1.9-1.1-3.3-2.2-4.5-0.5c-0.6,0.9-1,2.2-2.1,2.6c-1.1,0.3-2.2-0.7-2.5-1.8
			c-0.3-1.1,0.1-2.3,0.4-3.3c0.7-2.4,1.5-4.8,2.2-7.2c0.7-2.3,1.5-4.9,0.5-7.2c-0.5-1.1-1.3-2.1-2.3-2.9c-3.1-2.6-7.1-3.9-11-4.7
			c-4-0.8-8-1.2-11.9-2.4c-1.6-0.5-3.2-1.2-4.5-2.3c-2.1-1.8-3.2-4.6-3.2-7.3c0-2.7,0.9-5.4,2.3-7.8c0.3,0.9,0.7,1.9,1.2,2.7
			c0.5-1.3,1.2-2.4,2.2-3.4c1.2,6.4,28.3,4.3,34.6,7.1c4.4,2,8,3.3,7.9,10.4c0.1,0.5,0.5,0.8,0.9,1.1c3.9,3.6,5.6,7.9,6.1,14.4
			c0.6,7.9-4,16.5-8.5,23c-1.1,1.6-1.8,2.8-3.4,4c-1.6,1.2-4.3,1.8-6.3,1.4c-2-0.4-5.8-0.2-5.8-2.2c0-1.4,3-4,3.9-5.1"/>
	</g>
	<g>
		<path class="st20" d="M987.2,395.4c0,0-0.3,1.3,0.5,2.4c0.7,0.9,2.2,0.8,3.2,0.5c2.9-0.9,4.9-3.7,5.4-6.6c0.6-3.4-1.2-6.8-4.3-5.9
			c-1.8,0.5-3,2.6-3,4.5"/>
	</g>
	<g>
		<path class="st18" d="M962.2,405.9l8.7,1.6c0,0-2.9,3.3-8.8,3.3"/>
	</g>
</g>
<path class="st20" d="M863,461.1c0,0-1.5-2.7-3.1-3.9c-1.5-1.3-5.8-3.3-6.8-5.1c-1-1.8,0-11.2,2.9-12.1c2.8-0.9,5.7,6.3,7,8.9
	c1.3,2.7,0.3,6.5,0.3,6.5l2,3C865.2,458.3,863.8,459.9,863,461.1z"/>
<path class="st20" d="M853.9,442.6c0,0,1.9-4.6,2.6-6.3c0.7-1.6,1.5-3.1,2-2.8c0.5,0.4,0.8,1.3,0.5,2.6c-0.3,1.3-1.7,5.4-1.7,5.4"/>
<path class="st20" d="M855.2,445.6c0,0,2.9-7.6,3.8-9.5c0.9-2,1.9-3.8,2.4-3.3c0.6,0.4,0.8,1.2,0.4,2.7c-0.3,1.5-2,6.5-2,6.5"/>
<path class="st20" d="M857.2,447.7c0,0,2.4-6.3,3.2-7.9s1.5-3.1,2-2.8c0.5,0.4,0.6,1,0.4,2.3c-0.3,1.3-1.7,5.4-1.7,5.4"/>
<g class="st26">
	<g>
		<g>
			<path class="st27" d="M166.9,519.9c0.4,0.4,0.7,0.6,0.7,0.6C167.4,520.4,167.2,520.1,166.9,519.9z"/>
		</g>
		<g class="st26">
			<g>
				<path class="st27" d="M221.6,383.7l-5.2-1.5c-6.2-1.7-14.4,8.6-18.5,23.1c-4,14.5-2.4,27.7,3.8,29.4l-3,10.8
					c-0.1,0.1-0.2,0.2-0.4,0.3c-0.2-0.1-0.4-0.1-0.5-0.1c-0.3,0-0.5,0.6-0.7,1.2c-1.9,1.8-4.6,4.4-6,6.8c-1.2,2.1-1.6,6.7-1.6,6.7
					c-4.7,10.4-8.1,20.6-15.4,30.3c-1.4-2.9-3-6.1-4.5-9.3c0.5-0.7,0.7-1.2,0.7-1.2c-5.6-15.5-13.9-39.1-24.1-41
					c-3.5-0.6-6.9-0.9-10.2-1.2c-0.7-0.9-1.3-1.8-1.8-2.8c0.7-2.7,2.6-9.1,3.8-10.2c1.5-1.4,2.9,2.8,8.6,1.3
					c2.4-0.6,4.2-5.5,5.2-11.3c0-0.2,0-0.4,0.1-0.6c1.3-0.3,2.7-0.7,3-0.8c1.7-0.9,1.4-1.6,0.8-2.7c-1.3-2.3-2.2-4.8-2.7-6.7
					c0.2-4.1,0.2-8.4-0.5-12c0.1,0.4,0.3,0.7,0.4,1.1c2.5-1.6,2.5-5.7,2.3-7.1c-0.5-3-1.3-5.3-2.8-7.5c-6.5-9.2-11.9-10.2-16.4-11.2
					c-2.3-0.5-4.7-1-7.1-1.3v274c0,6,2.4,11.5,6.2,15.3c0-0.2,0-0.3,0-0.5c0-1,0-2.1,0.1-3.2c0-0.5,0-1,0-1.5c0-0.4,0-0.8,0-1.3
					c1.1,3.3,2.1,6.4,3.1,9.2c3.2,2.1,6.9,3.3,10.9,3.3H165c0.2-8.5-0.1-17.2-0.9-26.5c0.2-0.1,0.5-0.3,0.7-0.5
					c0.3-14.6-1-26-3.8-46c-4.3-30.1-9.3-36.8-13.8-48.9c-0.1-0.3-0.2-0.6-0.3-0.9c0.4-0.6,0.7-1.2,0.7-1.9c0.1-1.6-1.8-5.8-2-7.3
					c-0.9-9.2-1.4-17.9,1.3-22.6c1-1.8,2-3.3,3.1-4.7c5.1,4.4,10.4,9.2,15.2,12.5c0.2,0.2,0.4,0.4,0.6,0.5c0.9,0.6,1.7,1.1,2.5,1.4
					c0.3,0.2,0.7,0.4,1,0.6c-0.2-0.1-0.4-0.3-0.6-0.4c2.1,0.7,3.8,0.4,5.1-0.3c0.2,0,0.5,0.1,0.7,0.1c3.1,0.4,6.1-1.3,7.7-3.9
					c8.6-15,18.3-43.1,19.9-47.9c2.4-1.2,6.4-5.3,6.8-8.1c0.1-1,0-2.1-0.5-3c0.4-1.5,0.3-6.1-2.1-4c2-3.2,1.4-6.4,0.7-10
					c-0.1-0.5-0.4-0.7-0.8-0.6l0.8-2.8c6.2,1.7,14.4-8.6,18.5-23.1C229.5,398.6,227.8,385.5,221.6,383.7z"/>
			</g>
		</g>
	</g>
</g>
<g>
	<g>
		<path class="st28" d="M162.2,506.8c1.6-2.8,5.4-5.4,9.6-7.6c-11.2-10.6-36-27.9-36-27.9l-4.4,20.8c9.9,4.8,23.2,20.1,33.3,25.3
			C162.8,516.3,158.6,513,162.2,506.8z"/>
	</g>
	<path class="st3" d="M159.3,520.6c-0.2-0.2-0.5-0.4-0.7-0.6C159,520.3,159.3,520.6,159.3,520.6z"/>
	<path class="st28" d="M184.8,460.5c-6.7,15.1-10.8,29.6-27.9,42.7c-0.7,0.5-1.5,1.1-2.2,1.8c1.7,4.4,3.8,8.4,6.5,10.4
		c5.8,4.3,9.5,0.5,10.8-1.2c0.2-0.3,0.4-0.5,0.5-0.8c2.9-4.7,14.2-31.5,18-51.1C185.2,463.1,187,455.7,184.8,460.5z"/>
</g>
<path class="st28" d="M184.8,460.5c0,0,0.4-4.7,1.6-6.7c2.2-4,8.3-8.8,8.3-8.8l-1.9,12.9l-2.3,5.6l-3.4,0.5L184.8,460.5z"/>
<g>
	<path class="st20" d="M128.6,564.8l-33-27.1c0,0-14.9,20.8-8.9,40.6c2.9,9.7,6.5,14.5,8.1,19.1c1.5,4.3,12.2,65.5,11.5,70
		c-0.7,4.5-5.8,17.1-7.6,30.3c-2.2,15.9-1.1,67.6-2.8,81.3c-1.7,13.7,11,15.9,11.6,11.2c5.4-39.7,20.3-101.7,22.2-121.5
		S130.3,612.7,128.6,564.8z"/>
	<g>
		<path class="st29" d="M129.3,603.9l-13.7,32.8c6.1,10,9.7,21.9,10.4,34c0.3,6.3-0.1,12.6,0.1,18.9c0,0.4,0.1,0.9,0.2,1.4
			c1.8-9.3,3.1-17,3.6-22c1.4-14,1.1-36.3,0.2-65C129.7,603.8,129.5,603.8,129.3,603.9z"/>
	</g>
	<path class="st20" d="M109.6,777.6c0,0-2.8,14.4-2,16.2c0.8,1.8,3.9,7.1,6.9,9c3.2,2,10.2,4.3,10.8,5.2c0.6,0.9,0.6,2.1-0.4,2.9
		c-2.5,2.1-7,3.1-9.9,2.7c-9.5-1.4-10.5-5.6-16.1-6.2c-1-0.1-2.7,1.3-5.4,0c-2.7-1.3-4-3.7-3.8-6c0.3-4,2.5-7.3,4.1-10.2
		c1.5-3,2.5-16.4,2.5-16.4"/>
	<path class="st15" d="M125.7,811.6c0.7-1.2,0.8-3,0.2-3.4c-0.9-0.6-4.1-2.7-6-3.5c-1.9-0.8-4.8-1.5-3.7-1c1,0.5-0.8,2.6-2.6,2.6
		c-6-0.3-10.4-4.2-13.8-5c-4.9-1.2-7-6.9-7.3-7.8c-0.9,0.6-3,5.3-3.4,6.7c-0.4,1.3-1,3.8-0.7,5.1c0.3,0.9,0.9,2.9,0.6,4.9
		c0,0,1,0.7,3.5,1.2c1.6,0.3,3.8,0,3.8,0l0.4-3.1c0,0,1.3-0.1,3,0.3c1.7,0.3,4.5,1.9,4.6,2.1c0.7,0.8,1.3,2.3,2.2,2.7
		c2.4,1.2,4.8,1.7,7.8,1.8C120.8,815.5,124.5,813.6,125.7,811.6z"/>
</g>
<g>
	<path class="st20" d="M174,809c-0.7-0.8-8.3-2-11.8-3.5c-3.4-1.4-7.5-6-8.3-7.9c-0.8-1.9-0.6-11.7-0.5-15.8
		c0.7-28.2,5.9-97.2,6.7-113.7c1.3-28.7-2.4-58.3-13.5-104.4l-41.1-31.6c0,0-11.5,21.4-7.7,41.9c2.2,11.9,12.1,13.7,13.8,18.3
		c1.7,4.6,26.5,79,26.5,79s-4.8,16.1-5.1,33.7c-0.2,15,6.6,60.4,7.9,77.7c0.1,3.4,0.7,11.5-0.3,14c-1.2,3.2-4.3,6.9-4.2,10.8
		c0.1,2.3,1.8,4.5,4.7,5.4c2.9,0.9,4.5-0.8,5.5-0.8c5.8-0.2,7.4,3.7,17.4,3.7c3.1,0,7.6-1.7,9.9-4.1C175,811,174.7,809.8,174,809z"
		/>
	<path class="st15" d="M174.9,812.5c0.5-1.3,0.5-3.1-0.3-3.4c-1-0.5-4.6-2-6.6-2.5c-2-0.5-5.1-0.8-4-0.4c1.1,0.4-0.5,2.7-2.3,2.9
		c-6.2,0.6-11.3-2.6-14.9-2.9c-5.2-0.4-7.1-5.8-7.5-6.7c-0.9,0.7-3.4,5.7-3.7,7.2c-0.2,1.4-0.6,3.9,0,5.2c0.4,0.9,1.3,2.7,1.2,4.7
		c0,0,1.1,0.6,3.8,0.7c1.7,0.1,3.9-0.6,3.9-0.6v-3.1c0,0,1.4-0.3,3.2-0.2c1.8,0.1,4,1,5.1,1.8c0.8,0.6,1.7,1.7,2.7,2
		c2.9,0.7,5,0.9,8.1,0.6C170.4,817.2,174,814.7,174.9,812.5z"/>
</g>
<g>
	<path class="st30" d="M97.1,535.5c-10.6,10.8-17.3,26.4-13.5,43.6c1,4.6,6.7,16.8,7.9,21.4c2.5,10.3,7.2,25.5,8.1,37.5
		c16.3,9.8,47.2,6.1,60.6-3.4c0.3-14.6-1-26-3.8-46c-4.3-30.1-9.3-36.8-13.8-48.9c-0.5-2.1-2.1-6.4-2.6-8.9"/>
</g>
<g>
	<path class="st16" d="M120.4,434.8c2.7,0.4,2.8,6.6,5.5,7c2,0.3,5.4-1.2,7.3-0.5c9.9,3.4,9.4,13.9,12.8,26.2
		c5.5,8.9,8.1,17.4,6.1,23.3c-2.5,7.3-6.2,9.9-9.8,16.3c-2.7,4.7-2.3,13.4-1.3,22.6c0.2,1.6,2.1,5.8,2,7.4c-0.2,3.1-4.5,4.8-9.4,5.8
		c-11.3,2.3-28.9,1.1-34.5,0.7c-4.9-0.3-9.7-0.5-9.7-3.4c0-2,1.8-3.2,1.9-7.2c0.2-8.7-2.3-29.9-2.3-37.3c0.1-18.8,0.2-32.9,4.6-51"
		/>
</g>
<g>
	<path class="st31" d="M154.3,473.8c-3.7-4.4-8.3-8.1-12.8-11.6l-8.9,6.1c6.2,7.9,8.9,18.1,12.7,27.3c2.2-0.2,5.5-1.6,5.5-1.6
		c0.7-1.7,0.5-0.9,1.3-3.3C153.4,486.8,155,480.3,154.3,473.8z"/>
</g>
<path class="st20" d="M148.5,404.3c0.3-4.5,0.2-9.1-0.6-12.9c-1.6-7.2-4.4-17.5-17.2-19.6c-12.8-2.1-25.6,2.9-27.9,12.3
	c-2.4,9.4,0.9,22.3,1.6,29.4c0.7,7.1-2.9,16.4-2.9,16.4l27.9,6.4c0,0,2.6-10,4.1-11.4c1.5-1.4,2.9,2.8,8.6,1.3
	c2.4-0.7,4.2-5.5,5.2-11.3c0-0.2,0.1-0.4,0.1-0.6c1.3-0.3,2.7-0.7,3-0.8c1.7-0.9,1.4-1.6,0.8-2.7C149.8,408.7,149,406.2,148.5,404.3
	z"/>
<g>
	<path class="st11" d="M220.7,413.1c-4.1,14.5-12.3,24.9-18.5,23.2c-6.2-1.7-7.9-14.9-3.8-29.4c4.1-14.5,12.3-24.9,18.5-23.2
		C223.1,385.5,224.8,398.6,220.7,413.1z"/>
	<path class="st11" d="M184.7,488.8L184.7,488.8c-1.4-0.4-2.3-1.9-1.9-3.3l28.9-103.2l5.2,1.5l-28.9,103.2
		C187.7,488.4,186.2,489.2,184.7,488.8z"/>
	<path class="st32" d="M215.5,411.7c-4.1,14.5-12.3,24.9-18.5,23.2c-6.2-1.7-7.9-14.9-3.8-29.4s12.3-24.9,18.5-23.2
		C217.9,384,219.6,397.2,215.5,411.7z"/>
	<path class="st3" d="M213,411.2c-3.6,12.7-10.3,21.9-15.2,20.6c-4.8-1.3-5.8-12.7-2.3-25.5c3.6-12.7,10.3-21.9,15.2-20.6
		C215.6,387.1,216.6,398.5,213,411.2z"/>
	<path class="st11" d="M199,431.8c-0.4,0-0.7,0-1.1-0.1c-4.8-1.3-5.8-12.7-2.3-25.4c3.6-12.7,10.3-21.9,15.2-20.6
		c0.4,0.1,0.7,0.3,1,0.5c-4.7,0.1-10.8,8.9-14.1,20.7C194.3,418.6,195,429.3,199,431.8z"/>
</g>
<g>
	<path class="st20" d="M196.4,465.2c2.1-0.3,7.3-5.2,7.7-8.4c0.1-1,0-2.1-0.5-3c0.4-1.5,0.3-6.1-2.1-4c2-3.2,1.4-6.4,0.7-10
		c-0.2-1.2-1.6-1-2,1.8c-0.5,3.8-2.5,6.8-5.8,9.2c-0.5-0.5,0.2-1,0.2-2.6c0-1.7-0.8-2.5-1.6-2.4c-0.6,0-0.9,2.1-1.1,2.6
		c-0.9,1.8-1.7,3.6-2.6,5.4c-0.9,2-1.3,3.3-1.2,5.5c0,0.4,0.7,3.9,1.9,2.8"/>
</g>
<path class="st20" d="M166.6,508.1c2.5-5.8,10.3-4,10.3-4c-3-1.9-22.9-46.2-22.9-46.2l-16.2,15.9c5.9,8.1,22.5,35.4,24.9,38.5
	c0.8,1.1,1.9,2.2,3.2,3.4C165.3,513.4,165.3,511.2,166.6,508.1z"/>
<path class="st20" d="M188.8,461c-3,12.1-24.6,41.1-26.6,46.1c0,0-0.3,8,5.9,9.3c0.6,0.1,1.2,0.2,1.7,0.3c3.1,0.3,6.1-1.3,7.7-4
	c9.5-16.4,20.2-48.6,20.2-48.6S194.5,458.9,188.8,461z"/>
<path class="st16" d="M141.5,439.2c-10.5-2-19.9-0.3-28.8-6.4c-6.6,7.3,16.5,38.2,20.8,38.3c4.4,0.2,12.6,17.8,14.9,20.3
	c13.5-2.8,17.2-11.2,17.2-11.2C160,464.8,151.7,441.1,141.5,439.2z"/>
<g>
	<path class="st19" d="M133.8,441.6c-1.1-2.4-3.4-4.1-4.4-6.6c-0.9-2.4-0.9-5.6,0-8c0.6-1.5,1.7-2.6,2.8-3.8
		c4.6-5.3,5.9-9.1,2.9-15.2c-1-2-1.9-4-2.1-6.2c-0.2-2-0.1-4.1,1.9-4.7c1.4-0.4,2.4-0.3,3.2,0.9c0.5,0.8,0.9,7.1,2.3,3.2
		c1.4-3.7,3.1-4.3,1.6-12c-0.2-0.9-1.2-4.6-0.7-5.2c4.1,2,5.9,6.3,6.9,9.5c2.5-1.6,2.5-5.7,2.3-7.1c-0.5-3-1.3-5.3-2.8-7.5
		c-6.5-9.2-11.9-10.2-16.4-11.2c-4.4-1-9-2-13.4-1.1c-4.4,0.9-9.6,3.2-10.3,6.8c-6.4-0.5-9,5.5-10,7.7c-1.6,3.1-2.6,6.5-3.1,10
		c-0.7,5.1-0.1,10.4-0.5,15.5c-0.3,4.2-1.2,8.7-3.8,12.1c-2.5,3.2-6.7,4.3-9.4,7.3c-3.5,3.9-4.9,9.5-3.7,14.7
		c1.2,5.1,4.9,10.3,2.6,15.6c-0.7,1.7-1.9,3.2-2.7,5c-1.7,4-0.4,8.9,2.5,12.2c2.9,3.3,7.9,6.6,12.2,7.1c4.3,0.5,7.5,0.5,11.7-0.5
		c7.4-1.8,13.7-2.5,20.4-10.7c3.8-4.6,0.5-6.3,4.1-11.1c2-2.7,5.2-4.5,6.4-7.8c1-2.7,0.8-5.8-0.4-8.5
		C133.9,441.8,133.9,441.7,133.8,441.6z"/>
</g>
<g>
	<path class="st17" d="M584.2,124.4H475.2c0,0,0.1-1.5,1.1-3.8c2.8-6.5,12.9-19.8,49.3-25.7l18-3.7
		C543.5,91.2,585.2,91.2,584.2,124.4z"/>
	<path class="st21" d="M548.1,124.4h-72.9c0,0,0.1-1.5,1.1-3.8c2.7-0.9,6-0.7,8.6-0.1c2.7,0.7,4.4,1.2,4.4,1.2s38.2,0,47.4,0
		C546,121.7,548.1,124.4,548.1,124.4z"/>
	<path class="st20" d="M530.1,103.7c-1.5,0.1-2.9-0.4-4-1.3c-1.1-0.8-1.9-2-2.2-3.4c-0.2-1-0.6-2.1-1-3.2c-0.4-1.1-0.9-2.2-1.6-3
		l18.4-19.9c0,0,2,14.9,5.3,19.9C544.9,92.8,546,102.8,530.1,103.7z"/>
	<path class="st18" d="M534.7,84.3c0,0-2.2,11.4-8.7,18c-1.1-0.8-1.9-2-2.2-3.4c-0.2-1-0.6-2.1-1-3.2
		C525.8,93.7,531.9,88.8,534.7,84.3z"/>
	<path class="st19" d="M484,47c0,0-0.7,20,8.3,19.7c8.9-0.3,0-22,0-22L484,47z"/>
	<path class="st20" d="M537.5,69.1c0.3,3,0.4,5.6,0.2,7.6c0,0.3-0.1,0.5-0.1,0.8c0,0.3-0.1,0.5-0.2,0.8c-2.2,8.6-13,20.6-20.6,21.6
		c-1,0.1-2,0.1-2.9,0.1c-10.6-0.5-16.8-9.2-20.4-18.4c-0.1-0.3-0.2-0.6-0.4-1c-3.2-8.6-4.2-17.4-4.5-20.5c-0.1-0.7-0.6-8.6,1-10.9
		c1.7-2.6,22.7-5,23.1-5c0.4,0,20.6,1.4,20.6,1.4S536.5,59,537.5,69.1z"/>
	<path class="st19" d="M479.9,40.8c0,0,0.7,15.4,25.9,9.2c6.9-1.7,13-3.3,16.5-1.4c5.2,16.2,5.3,24,7.2,23.4
		c2.3-0.8-3.9-14.3,4-12.8c6,1.1-0.3,16-0.3,16s7.3,1,7.6-2.4c0.1-2,0.4-31.1-4.6-38c-5-6.9-11-6.6-11-6.6s-6.3-5.3-21.2-1
		c-14.9,4.4-22.7-1.1-22.7-0.7C481.2,26.9,478.8,31.2,479.9,40.8z"/>
	<path class="st27" d="M584.2,124.4c0,0-8.4,57.1-45.5,85.9c-13.6,10.6-29.2,26.7-29.2,26.7l-0.5-0.5c-1.9,1.8-1.9,1.9-2.4,2.7
		c-1,1.8-2,8.4-3.9,9.1c-0.2,0.1-0.6,0.1-0.9,0.2c-0.7,0.5-1.7,1.1-2.7,1.2c-2.1,0.3-5.1-0.4-5.9-0.6c-0.7,0.6-1.3,1.4-2.7,2.1
		c-2.6,1.3-5,3.1-7.1,3.8c-2.1,0.7-2.5,0-2-1.3c0.4-1.4,4.4-3.6,5.9-4.7c1.4-1.1,3.9-4.3,4.8-6.3c0.9-2,0.9-3,0-3
		c-0.9,0-3.6,1.7-5.7,2.1c-2.1,0.5-3.1-0.1-2.1-1.3c1-1.2,3.9-4.8,7.4-5.7c3.5-0.9,4.4-0.9,6.9-2.8c1.2-0.9,2.7-2.9,3.9-4.7
		l-0.9-0.7c0,0,22.9-32,40.1-56.6c0.4-0.5,0.7-1,1.1-1.5c9.7-19.6,10.7-35.1,10.6-41.2c-1.2-2.2-2.9-2.8-2.9-2.8L584.2,124.4z"/>
	<path class="st20" d="M502.3,223.8c0,0-3.7,6.3-6.1,8.2c-2.4,1.9-3.4,1.9-6.9,2.8c-3.4,0.9-6.4,4.4-7.4,5.7c-1,1.2,0,1.8,2.1,1.3
		c2.1-0.4,4.8-2.1,5.7-2.1c0.9,0,0.9,1.1,0,3c-0.9,2-3.3,5.2-4.8,6.3c-1.4,1.1-5.4,3.3-5.9,4.7c-0.4,1.3-0.1,2,2,1.3
		c2.1-0.7,4.6-2.4,7.1-3.8c1.4-0.7,2-1.5,2.7-2.1c0.8,0.2,3.8,0.9,5.9,0.6c1.1-0.2,2-0.7,2.8-1.2c0.3-0.1,0.6-0.1,0.9-0.2
		c1.9-0.8,2.9-7.3,3.9-9.1c1-1.8,8.3-8.4,8.3-8.4L502.3,223.8z"/>
	<path class="st17" d="M584.2,124.4l-13.8-9.4l-7.1,3.4c-4.4-1.9-12-4.8-12-4.8l-3.3,10.8c0,0,1.8,0.6,2.9,2.8
		c0.1,6.1-0.9,21.6-10.6,41.2c-0.4,0.5-0.8,1-1.2,1.5c-17.1,24.7-40.1,56.6-40.1,56.6l9.8,8.6c0,0,14.7-13.2,27.4-24.9
		c4.3-3.9,17.5-16.7,25.5-31.2C575.4,154.3,584.2,124.4,584.2,124.4z"/>
	<path class="st27" d="M493.5,130.9c-0.1,0-0.2-0.1-0.4-0.1c0.4,0.5,0.7,0.8,0.8,1c0.4,0.4,0.1,0.7,0.1,0.7c-0.5,0.6-1,0.5-1.7,0.5
		c-0.4,0-0.8-0.2-1.2-0.6c-0.5,0.4-0.9,0.4-1.6,0.4c-0.6-0.1-1.4-0.7-2.5-1.7c0.1,0.3,0,0.5,0,0.5c-0.6,0.5-1,0.5-1.7,0.5
		c-0.6-0.1-1.5-0.7-2.6-1.9c-0.4-0.4-0.9-1-1.4-1.6c-0.5-0.4-1-0.7-1.4-0.9c-0.9-0.6-1.7-0.7-2.1-0.7c-0.1,0-0.1,0-0.1,0v0
		c-5.2-0.1-7.5-2.3-13.8-2.3h28.7c-0.1,0-0.1,0.1-0.2,0.1c-0.3,0.1-1,0.2-1.7,0.3c0,0,0.1,0.1,0.1,0.1c0.4,0.4,0.7,0.9,1.1,1.2
		c1.1,1.4,2.7,3.2,3,3.5c0.4,0.5,0.1,0.7,0.1,0.7C494.6,131,494.1,130.9,493.5,130.9z"/>
	<path class="st20" d="M492.3,130.9c-0.1,0-0.2-0.1-0.4-0.1c0.4,0.5,0.7,0.8,0.8,1c0.4,0.4,0.1,0.7,0.1,0.7c-0.5,0.6-1,0.5-1.7,0.5
		c-0.4,0-0.8-0.2-1.2-0.6c-0.5,0.4-0.9,0.4-1.6,0.4c-0.6-0.1-1.4-0.7-2.5-1.7c0.1,0.3,0,0.5,0,0.5c-0.6,0.5-1,0.5-1.7,0.5
		c-0.6-0.1-1.5-0.7-2.6-1.9c-0.4-0.4-0.9-1-1.4-1.6c-0.5-0.4-1-0.7-1.4-0.9c-0.9-0.6-1.7-0.7-2.1-0.7c-0.1,0-0.1,0-0.1,0v0
		c-5.2-0.1-7.5-2.3-13.8-2.3c0,0,14.8-7.1,23.7-2.1c0.9,0.1,2.7,0.4,3.8,0.4c2.6,0,1.9,1.4,1,1.8c-0.3,0.1-1,0.2-1.7,0.3
		c0,0,0.1,0.1,0.1,0.1c0.4,0.4,0.7,0.9,1.1,1.2c1.1,1.4,2.7,3.2,3,3.5c0.4,0.5,0.1,0.7,0.1,0.7C493.4,131,492.9,130.9,492.3,130.9z"
		/>
	
		<linearGradient id="SVGID_00000174599316014461257570000001986430632229092226_" gradientUnits="userSpaceOnUse" x1="486.5601" y1="123.5848" x2="492.1307" y2="123.5848">
		<stop  offset="0" style="stop-color:#F7941E"/>
		<stop  offset="1" style="stop-color:#F7941E;stop-opacity:0"/>
	</linearGradient>
	<path style="opacity:0.47;fill:url(#SVGID_00000174599316014461257570000001986430632229092226_);" d="M491.4,124.5
		c-0.3,0.1-1,0.2-1.7,0.3c0,0-2.2-2-3.1-2.5c0.9,0.1,2.7,0.4,3.8,0.4C492.9,122.8,492.2,124.1,491.4,124.5z"/>
</g>
<g class="st34">
	<path class="st35" d="M396.5,362.6l-5.8-8.2h-5.2v8.2h-4.1V339h10.5c1.3,0,2.6,0.2,3.7,0.5c1.1,0.3,2,0.8,2.8,1.5
		c0.8,0.6,1.3,1.4,1.7,2.4c0.4,0.9,0.6,2,0.6,3.1c0,1-0.1,1.9-0.4,2.6c-0.3,0.8-0.7,1.5-1.2,2.1c-0.5,0.6-1.1,1.1-1.8,1.5
		c-0.7,0.4-1.4,0.7-2.3,1l6.4,8.9H396.5z M395.2,343.7c-0.9-0.7-2.1-1-3.6-1h-6v8h6.1c1.5,0,2.7-0.4,3.5-1.1
		c0.9-0.7,1.3-1.7,1.3-2.9C396.5,345.4,396,344.4,395.2,343.7z"/>
	<path class="st35" d="M430.6,342.7h-13.3v6.1h11.8v3.7h-11.8v6.3h13.5v3.7h-17.6V339h17.5V342.7z"/>
	<path class="st35" d="M446.9,346.4c0.2,0.3,0.4,0.7,0.9,0.9c0.4,0.3,1,0.6,1.7,0.8c0.7,0.2,1.7,0.5,2.8,0.8c1.2,0.3,2.3,0.7,3.3,1
		s1.8,0.8,2.4,1.4c0.6,0.5,1.1,1.2,1.4,1.9c0.3,0.7,0.5,1.6,0.5,2.6c0,1.1-0.2,2.1-0.6,3c-0.4,0.9-1,1.6-1.7,2.2
		c-0.7,0.6-1.6,1.1-2.6,1.4c-1,0.3-2.2,0.5-3.4,0.5c-1.8,0-3.6-0.3-5.2-0.9c-1.7-0.6-3.2-1.6-4.6-2.8l2.5-3c1.1,1,2.3,1.7,3.5,2.3
		c1.2,0.5,2.5,0.8,4,0.8c1.3,0,2.3-0.3,3-0.8c0.8-0.5,1.1-1.3,1.1-2.2c0-0.4-0.1-0.8-0.2-1.1c-0.1-0.3-0.4-0.6-0.8-0.9
		c-0.4-0.3-0.9-0.5-1.6-0.8c-0.7-0.2-1.6-0.5-2.7-0.8c-1.3-0.3-2.4-0.6-3.4-1c-1-0.4-1.8-0.8-2.5-1.3c-0.7-0.5-1.2-1.2-1.5-2
		s-0.5-1.7-0.5-2.8c0-1,0.2-2,0.6-2.8c0.4-0.8,1-1.6,1.7-2.2c0.7-0.6,1.5-1.1,2.5-1.4c1-0.3,2.1-0.5,3.2-0.5c1.7,0,3.3,0.3,4.7,0.8
		c1.4,0.5,2.7,1.2,3.9,2.2l-2.2,3.1c-1.1-0.8-2.1-1.4-3.2-1.8c-1.1-0.4-2.1-0.6-3.2-0.6c-1.2,0-2.2,0.3-2.8,0.8c-0.7,0.5-1,1.2-1,2
		C446.6,345.6,446.7,346,446.9,346.4z"/>
	<path class="st35" d="M491.9,352.4c0,1.8-0.2,3.3-0.7,4.6c-0.5,1.3-1.2,2.4-2,3.3c-0.9,0.9-1.9,1.5-3.2,2c-1.2,0.4-2.6,0.7-4.2,0.7
		c-1.5,0-2.9-0.2-4.1-0.7c-1.2-0.4-2.3-1.1-3.2-2c-0.9-0.9-1.5-2-2-3.3c-0.5-1.3-0.7-2.8-0.7-4.5V339h4.1v13.4c0,2.2,0.5,3.9,1.6,5
		c1.1,1.1,2.5,1.7,4.4,1.7c1.9,0,3.3-0.5,4.4-1.6c1.1-1.1,1.6-2.7,1.6-4.9V339h4.1V352.4z"/>
	<path class="st35" d="M505,339h4.1v19.8h12.4v3.7H505V339z"/>
	<path class="st35" d="M539.9,362.6h-4.2v-19.7h-7.5V339h19.1v3.8h-7.5V362.6z"/>
	<path class="st35" d="M562.4,346.4c0.2,0.3,0.4,0.7,0.9,0.9c0.4,0.3,1,0.6,1.7,0.8c0.7,0.2,1.7,0.5,2.8,0.8c1.2,0.3,2.3,0.7,3.3,1
		s1.8,0.8,2.4,1.4c0.6,0.5,1.1,1.2,1.4,1.9c0.3,0.7,0.5,1.6,0.5,2.6c0,1.1-0.2,2.1-0.6,3c-0.4,0.9-1,1.6-1.7,2.2
		c-0.7,0.6-1.6,1.1-2.6,1.4c-1,0.3-2.2,0.5-3.4,0.5c-1.8,0-3.6-0.3-5.2-0.9c-1.7-0.6-3.2-1.6-4.6-2.8l2.5-3c1.1,1,2.3,1.7,3.5,2.3
		s2.5,0.8,4,0.8c1.3,0,2.3-0.3,3-0.8c0.8-0.5,1.1-1.3,1.1-2.2c0-0.4-0.1-0.8-0.2-1.1s-0.4-0.6-0.8-0.9c-0.4-0.3-0.9-0.5-1.6-0.8
		c-0.7-0.2-1.6-0.5-2.7-0.8c-1.3-0.3-2.4-0.6-3.4-1c-1-0.4-1.8-0.8-2.5-1.3c-0.7-0.5-1.2-1.2-1.5-2c-0.4-0.8-0.5-1.7-0.5-2.8
		c0-1,0.2-2,0.6-2.8c0.4-0.8,1-1.6,1.7-2.2c0.7-0.6,1.5-1.1,2.5-1.4c1-0.3,2.1-0.5,3.2-0.5c1.7,0,3.3,0.3,4.7,0.8
		c1.4,0.5,2.7,1.2,3.9,2.2l-2.2,3.1c-1.1-0.8-2.1-1.4-3.2-1.8c-1.1-0.4-2.1-0.6-3.2-0.6c-1.2,0-2.2,0.3-2.8,0.8c-0.7,0.5-1,1.2-1,2
		C562.1,345.6,562.2,346,562.4,346.4z"/>
</g>
</svg>
